<?xml version="1.0" encoding="utf-8"?>
<!-- Generator: Adobe Illustrator 27.5.0, SVG Export Plug-In . SVG Version: 6.00 Build 0)  -->
<svg version="1.1" xmlns="http://www.w3.org/2000/svg" xmlns:xlink="http://www.w3.org/1999/xlink" x="0px" y="0px"
	 viewBox="0 0 500 500" style="enable-background:new 0 0 500 500;" xml:space="preserve">
<g id="BACKGROUND">
	<g>
		<rect style="fill:#FFF4D6;" width="500" height="500"/>
	</g>
</g>
<g id="OBJECTS">
	<g>
		<g>
			<ellipse style="fill:#FFD099;" cx="256.428" cy="458.639" rx="220.175" ry="9.769"/>
		</g>
		<g>
			<g>
				<path style="fill:#FFE7C2;" d="M258.75,86.539c0,0,71.776-28.56,106.322,14.312c34.545,42.872-42.294,107.895,45.445,148.664
					c87.739,40.769,42.58,128.818-22.817,122.302c-100.52-10.015-43.931-81.495-206.94-56.746
					C100.042,327.327,40.39,155.74,258.75,86.539z"/>
			</g>
			<g>
				<path style="fill:#FFE7C2;" d="M269.623,318.664c0,0,20.419,3.231,21.694,14.892c1.275,11.661-23.737,7.971-30.255-0.73
					C254.545,324.124,262.718,316.902,269.623,318.664z"/>
			</g>
			<g>
				<path style="fill:#FFE7C2;" d="M368.3,67.272c0,0,12.763,11.415,7.39,21.843c-5.372,10.428-21.891-2.444-21.926-13.316
					C353.737,67.2,362,63.2,368.3,67.272z"/>
			</g>
			<g>
				<path style="fill:#FFE7C2;" d="M230.726,323.423c-0.055-5.296,4.903-9.187,10.1-8.163c4.091,0.806,8.398,2.896,8.703,8.091
					c0.591,10.054-10.46,7.689-15.574,5.52C231.787,327.951,230.743,325.066,230.726,323.423z"/>
			</g>
			<g>
				<path style="fill:#FFE7C2;" d="M376.699,99.2c3.618-3.868,9.891-3.257,12.942,1.072c2.402,3.409,4.073,7.894,0.706,11.863
					c-6.516,7.679-12.875-1.664-15.075-6.765C374.339,103.207,375.577,100.399,376.699,99.2z"/>
			</g>
			<g>
				<path style="fill:#FFE7C2;" d="M102.319,264.182c-4.444,2.881-10.385,0.776-12.301-4.162c-1.508-3.887-2.049-8.643,2.177-11.682
					c8.176-5.881,12.094,4.72,12.998,10.201C105.575,260.862,103.697,263.288,102.319,264.182z"/>
			</g>
		</g>
		<g>
			<g>
				<g>
					<g>
						<path style="fill:#FFD099;" d="M84.038,350.149c0,0-51.439-33.737-32.626-50.814
							C65.789,286.284,84.655,320.014,84.038,350.149z"/>
					</g>
				</g>
				<g>
					<g>
						<g>
							<g>
								<path style="fill:#FFB26A;" d="M102.557,379.36c-10.494-17.007-37.096-61.522-37.369-61.978
									c-0.118-0.198-0.375-0.262-0.573-0.144c-0.201,0.119-0.263,0.375-0.144,0.572c0.271,0.453,26.573,44.467,37.193,61.694
									L102.557,379.36z"/>
							</g>
						</g>
					</g>
				</g>
			</g>
			<g>
				<g>
					<g>
						<path style="fill:#FFD099;" d="M94.75,357.046c0,0,21.096-43.717,4.565-51.531C81.084,296.896,84.304,335.594,94.75,357.046z"
							/>
					</g>
				</g>
				<g>
					<g>
						<g>
							<g>
								<path style="fill:#FFB26A;" d="M96.844,371.57c-3.346-14.566-1.312-45.87-1.29-46.198c0.014-0.212-0.146-0.395-0.358-0.41
									c-0.212-0.014-0.395,0.146-0.41,0.358c-0.022,0.328-2.047,31.482,1.27,46.254L96.844,371.57z"/>
							</g>
						</g>
					</g>
				</g>
			</g>
		</g>
		<g>
			<g>
				<g>
					<g>
						<path style="fill:#FFD099;" d="M427.56,427.967c0,0,70.918-47.011,44.781-70.503
							C452.366,339.51,426.502,386.291,427.56,427.967z"/>
					</g>
				</g>
				<g>
					<g>
						<g>
							<g>
								<path style="fill:#FFB26A;" d="M410.457,456.984c16.736-27.834,43.626-73.336,43.946-73.879
									c0.163-0.275,0.075-0.628-0.203-0.791c-0.275-0.162-0.629-0.071-0.791,0.203c-0.323,0.546-27.596,46.698-44.3,74.466
									H410.457z"/>
							</g>
						</g>
					</g>
				</g>
			</g>
			<g>
				<g>
					<g>
						<path style="fill:#FFD099;" d="M408.754,447.443c0,0-21.553-69.611,4.734-77.52
							C442.477,361.202,429.052,417.93,408.754,447.443z"/>
					</g>
				</g>
				<g>
					<g>
						<g>
							<g>
								<path style="fill:#FFB26A;" d="M407.163,456.984c5.785-23.119,8.589-56.234,8.623-56.648
									c0.026-0.318-0.21-0.596-0.528-0.623c-0.318-0.026-0.597,0.21-0.623,0.528c-0.034,0.414-2.857,33.758-8.657,56.743H407.163z
									"/>
							</g>
						</g>
					</g>
				</g>
			</g>
		</g>
		<g>
			<g>
				<g>
					<g>
						<path style="fill:#FFB26A;" d="M87.579,455.68c-14.755-16.828-29.007-36.675-37.118-50.017
							c-10.597-17.431-15.272-31.631-13.896-42.204c0.092-0.701,0.733-1.195,1.435-1.104c0.701,0.091,1.195,0.733,1.104,1.434
							c-2.405,18.484,15.505,51.17,51.63,91.542L87.579,455.68z"/>
					</g>
				</g>
			</g>
			<g>
				<g>
					<path style="fill:#FFD099;" d="M42.31,389.336c0,0-8.509,6.485-19.326-8.92C22.984,380.417,38.823,374.183,42.31,389.336z"/>
				</g>
			</g>
			<g>
				<g>
					<path style="fill:#FFD099;" d="M47.476,397.567c0,0-6.949-8.135,7.83-19.793C55.306,377.775,62.412,393.243,47.476,397.567z"/>
				</g>
			</g>
			<g>
				<g>
					<path style="fill:#FFD099;" d="M37.948,371.64c0,0-9.263-5.353,0.784-21.271C38.732,350.37,50.588,362.584,37.948,371.64z"/>
				</g>
			</g>
			<g>
				<g>
					<path style="fill:#FFD099;" d="M57.359,414.446c0,0-5.813,8.981-21.204-1.857C36.154,412.589,48.952,401.366,57.359,414.446z"
						/>
				</g>
			</g>
			<g>
				<g>
					<path style="fill:#FFD099;" d="M63.891,422.034c0,0-8.251-6.81,4.29-20.849C68.181,401.186,77.854,415.192,63.891,422.034z"/>
				</g>
			</g>
			<g>
				<g>
					<path style="fill:#FFD099;" d="M71.803,433.312c0,0-5.642,9.09-21.236-1.454C50.567,431.858,63.15,420.393,71.803,433.312z"/>
				</g>
			</g>
			<g>
				<g>
					<path style="fill:#FFD099;" d="M77.917,442.016c0,0,10.347-2.719,4.856-20.724C82.773,421.292,68.114,429.946,77.917,442.016z"
						/>
				</g>
			</g>
		</g>
		<g>
			<g>
				<g>
					<g>
						<g>
							<path style="fill:#FFB26A;" d="M351.359,419.334c-7.963-3.281-15.552,11.906-19.542,21.797
								c-1.836,4.544-2.909,7.971-2.909,7.971c-0.652,1.423-1.189,2.691-1.624,3.82c-0.237,0.615-0.438,1.179-0.609,1.701h11.148
								c2.298-2.988,4.761-6.253,6.322-8.498C350.787,436.556,358.885,422.435,351.359,419.334z"/>
						</g>
					</g>
				</g>
				<g>
					<g>
						<g>
							<path style="fill:#FF944F;" d="M345.011,430.156c-0.242-0.14-0.542-0.059-0.681,0.178
								c-0.433,0.739-9.045,15.444-13.383,24.288h1.113c4.444-8.956,13.024-23.607,13.129-23.785
								C345.327,430.6,345.248,430.295,345.011,430.156z"/>
						</g>
					</g>
				</g>
			</g>
			<g>
				<g>
					<g>
						<g>
							<path style="fill:#FFD099;" d="M320.396,448.035c-0.005,1.565,0.031,2.942,0.102,4.149c0.055,0.93,0.132,1.742,0.23,2.453
								h8.818c1.064-4.406,2.741-11.521,3.49-15.618c2.088-11.46,3.617-27.666-4.518-27.375c-8.607,0.309-9.232,17.274-8.771,27.93
								C319.955,444.47,320.396,448.035,320.396,448.035z"/>
						</g>
					</g>
				</g>
				<g>
					<g>
						<g>
							<path style="fill:#FFB26A;" d="M325.493,454.637c0.012-9.16,2.143-29.739,2.167-29.966c0.028-0.273-0.17-0.518-0.444-0.547
								c-0.278-0.027-0.518,0.17-0.547,0.444c-0.097,0.927-2.166,20.913-2.173,30.069H325.493z"/>
						</g>
					</g>
				</g>
			</g>
		</g>
	</g>
	<g>
		<g>
			<g>
				<polygon style="fill:#FF944F;" points="89.935,353.518 48.335,386.133 58.608,386.133 97.791,369.825 				"/>
			</g>
			<g>
				<polygon style="fill:#FF944F;" points="235.767,353.518 277.366,386.133 267.093,386.133 227.91,369.825 				"/>
			</g>
			<g>
				<polygon style="fill:#FFB26A;" points="241.59,366.462 237.6,394.718 237.058,398.561 228.701,457.749 96.906,457.749 
					89.459,405.012 88.006,394.718 84.016,366.462 162.803,366.296 				"/>
			</g>
			<g>
				<g>
					<path style="fill:#FF944F;" d="M177.768,439.726c-0.037,4.836-3.828,7.688-8.346,6.708c-1.143-0.248-2.273-0.568-3.399-0.886
						c-2.464-0.697-4.91-0.701-7.382,0.01c-1.411,0.406-2.85,0.737-4.297,0.986c-4.472,0.771-7.841-3.26-7.086-7.655
						c0.396-2.304,1.483-4.283,3.198-5.824c2.014-1.809,3.616-3.927,5.166-6.114c0.693-0.978,1.458-1.915,2.276-2.791
						c2.856-3.06,7.527-2.083,9.456,0.122c0.964,1.102,1.807,2.322,2.612,3.549c1.193,1.819,2.52,3.499,4.136,4.975
						C176.256,434.774,177.692,437.153,177.768,439.726z"/>
				</g>
				<g>
					<path style="fill:#FF944F;" d="M164.237,415.046c0.038-2.437,0.701-4.584,2.29-6.366c1.256-1.408,2.784-2.342,4.764-1.954
						c2.072,0.406,3.154,1.907,3.662,3.807c0.776,2.901,0.22,5.615-1.566,8.017c-1.308,1.759-3.014,2.948-5.33,2.4
						c-2.369-0.56-3.258-2.459-3.694-4.634C164.274,415.877,164.272,415.421,164.237,415.046z"/>
				</g>
				<g>
					<path style="fill:#FF944F;" d="M170.554,407.408c0,0,3.162-2.958,3.454-2.774c0.32,0.202-0.944,4.271-0.944,4.271
						S171.304,408.844,170.554,407.408z"/>
				</g>
				<g>
					<path style="fill:#FF944F;" d="M160.829,414.273c-0.063,2.099-0.431,3.565-1.395,4.834c-1.436,1.89-3.769,2.296-5.767,1.016
						c-3.517-2.253-4.609-8.231-2.113-11.565c1.55-2.07,4.2-2.394,6.274-0.7C160.014,409.643,160.789,412.073,160.829,414.273z"/>
				</g>
				<g>
					<path style="fill:#FF944F;" d="M153.112,408.885c0,0,0.028-4.33,0.362-4.415c0.367-0.093,2.45,3.623,2.45,3.623
						S154.67,409.328,153.112,408.885z"/>
				</g>
				<g>
					<path style="fill:#FF944F;" d="M174.066,424.987c0.223-2.84,1.319-5.151,3.784-6.636c3.15-1.897,6.376-0.282,6.806,3.364
						c0.359,3.044-1.647,6.524-4.437,7.693c-2.764,1.158-5.363-0.194-5.973-3.118C174.155,425.852,174.122,425.401,174.066,424.987z
						"/>
				</g>
				<g>
					<path style="fill:#FF944F;" d="M183.249,421.425c0,0,2.03-3.825,1.777-4.058c-0.278-0.256-3.876,2.026-3.876,2.026
						S181.667,421.076,183.249,421.425z"/>
				</g>
				<g>
					<path style="fill:#FF944F;" d="M151.229,424.756c-0.04,0.45-0.042,0.875-0.12,1.286c-0.692,3.605-4.154,4.96-7.033,2.675
						c-2.492-1.977-3.487-4.629-2.824-7.766c0.656-3.104,3.735-4.379,6.42-2.688C150.048,419.762,151.092,422.035,151.229,424.756z"
						/>
				</g>
				<g>
					<path style="fill:#FF944F;" d="M142.44,419.549c0,0-0.663-4.279-0.347-4.416c0.347-0.151,2.997,3.186,2.997,3.186
						S144.049,419.739,142.44,419.549z"/>
				</g>
			</g>
			<g>
				<polygon style="fill:#FF944F;" points="237.6,394.718 237.058,398.561 89.459,405.012 88.006,394.718 				"/>
			</g>
			<g>
				<polygon style="fill:#FFB26A;" points="262.973,394.718 62.633,394.718 65.623,390.204 66.869,388.326 89.935,353.519 
					235.672,353.519 258.736,388.326 259.982,390.204 				"/>
			</g>
			<g>
				<polygon style="fill:#FF944F;" points="259.982,390.204 65.623,390.204 66.869,388.326 258.736,388.326 				"/>
			</g>
		</g>
		<g>
			<g>
				<g>
					<path style="fill:#352422;" d="M226.753,345.933c0,0,0.989,8.079-8.803,8.212c-9.792,0.132-33.844-0.601-33.844-0.601
						s-16.538-0.526-12.474-7.388C178.713,334.2,218.194,327.449,226.753,345.933z"/>
				</g>
				<g>
					<g>
						<path style="fill:#FFFFFF;" d="M216.163,354.172c0,0,0.258-0.05,0.7-0.062c2.956-0.082,5.593,1.851,6.484,4.671
							c0.809,2.553,2.536,6.226,5.822,6.354h0.002c0.058,0,0.114,0.002,0.174,0.002c0.224,0,0.444-0.008,0.658-0.026
							c0.616-0.05,1.193-0.168,1.729-0.35c0.32-0.108,0.626-0.236,0.915-0.386c0.664-0.342,1.247-0.787,1.747-1.319
							c0.334-0.354,0.63-0.746,0.883-1.169c1.085-1.797,1.447-4.154,0.939-6.59c-1.441-6.918-7.869-10.426-13.266-11.547
							C216.445,344.226,216.163,354.172,216.163,354.172z"/>
					</g>
					<g>
						<g style="opacity:0.3;">
							<g>
								<g>
									<g>
										<g>
											<g>
												<path style="fill:#352422;" d="M234.214,360.017c0.106,1.019,0.16,2.047,0.18,3.04c0.334-0.354,0.63-0.746,0.883-1.169
													c-0.03-0.654-0.076-1.311-0.142-1.967c-0.026-0.252-0.256-0.436-0.506-0.412
													C234.378,359.537,234.192,359.765,234.214,360.017z"/>
											</g>
										</g>
									</g>
								</g>
							</g>
							<g>
								<g>
									<g>
										<g>
											<g>
												<path style="fill:#352422;" d="M228.562,360.87c0.09,1.415,0.274,2.832,0.494,4.152l0.114,0.114h0.002
													c0.058,0,0.114,0.002,0.174,0.002c0.224,0,0.444-0.008,0.658-0.026c-0.232-1.355-0.428-2.826-0.518-4.299
													c-0.018-0.254-0.24-0.446-0.492-0.432C228.744,360.399,228.548,360.616,228.562,360.87z"/>
											</g>
										</g>
									</g>
								</g>
							</g>
							<g>
								<g>
									<g>
										<g>
											<g>
												<path style="fill:#352422;" d="M231.37,359.539c0.246,1.785,0.342,3.602,0.362,5.223
													c0.32-0.108,0.626-0.236,0.915-0.386c-0.03-1.557-0.132-3.274-0.366-4.963c-0.036-0.254-0.268-0.428-0.52-0.394
													C231.51,359.055,231.334,359.287,231.37,359.539z"/>
											</g>
										</g>
									</g>
								</g>
							</g>
						</g>
					</g>
				</g>
				<g>
					<g>
						<path style="fill:#FFFFFF;" d="M184.939,353.569c0.007,0.111,0.117,0.124,0.007,0.111c-0.119-0.013,0.088-0.008-0.119-0.013
							c-2.956-0.082-6.368,2.294-7.26,5.114c-0.81,2.553-2.537,6.226-5.823,6.354h-0.002c-0.058,0-0.114,0.002-0.174,0.002
							c-0.224,0-0.444-0.008-0.658-0.026c-0.616-0.05-1.193-0.168-1.729-0.35c-0.32-0.108-0.626-0.236-0.916-0.386
							c-0.664-0.342-1.247-0.787-1.747-1.319c-0.334-0.354-0.63-0.746-0.883-1.169c-1.085-1.797-1.447-4.154-0.939-6.59
							c1.441-6.918,7.869-10.426,13.266-11.547C183.897,344.184,184.852,352.111,184.939,353.569z"/>
					</g>
					<g>
						<g style="opacity:0.3;">
							<g>
								<g>
									<g>
										<g>
											<g>
												<path style="fill:#352422;" d="M166.699,360.017c-0.106,1.019-0.16,2.047-0.18,3.04
													c-0.334-0.354-0.63-0.746-0.883-1.169c0.03-0.654,0.076-1.311,0.142-1.967c0.026-0.252,0.256-0.436,0.506-0.412
													C166.535,359.537,166.721,359.765,166.699,360.017z"/>
											</g>
										</g>
									</g>
								</g>
							</g>
							<g>
								<g>
									<g>
										<g>
											<g>
												<path style="fill:#352422;" d="M172.352,360.87c-0.09,1.415-0.274,2.832-0.494,4.152l-0.114,0.114h-0.002
													c-0.058,0-0.114,0.002-0.174,0.002c-0.224,0-0.444-0.008-0.658-0.026c0.232-1.355,0.428-2.826,0.518-4.299
													c0.018-0.254,0.24-0.446,0.492-0.432C172.17,360.399,172.366,360.616,172.352,360.87z"/>
											</g>
										</g>
									</g>
								</g>
							</g>
							<g>
								<g>
									<g>
										<g>
											<g>
												<path style="fill:#352422;" d="M169.544,359.539c-0.246,1.785-0.342,3.602-0.362,5.223
													c-0.32-0.108-0.626-0.236-0.916-0.386c0.03-1.557,0.132-3.274,0.366-4.963c0.036-0.254,0.268-0.428,0.52-0.394
													C169.404,359.055,169.58,359.287,169.544,359.539z"/>
											</g>
										</g>
									</g>
								</g>
							</g>
						</g>
					</g>
				</g>
			</g>
			<g>
				<g>
					<g>
						<g>
							<path style="fill:#352422;" d="M193.485,330.704c0,0-5.253-5.995-13.41-9.69c-1.187-0.538-2.494,0.471-2.278,1.755
								l2.416,14.36C180.212,337.129,191.606,337.369,193.485,330.704z"/>
						</g>
					</g>
					<g>
						<g>
							<path style="fill:#594B54;" d="M182.874,335.199c-0.849-3.236-1.228-6.671-2.229-10.486c0,0,8.841,4.533,9.528,7.296
								C190.174,332.009,185.701,335.868,182.874,335.199z"/>
						</g>
					</g>
				</g>
				<g>
					<g>
						<g>
							<path style="fill:#352422;" d="M207.599,329.247c0,0,6.4-4.438,15.056-6.091c1.418-0.271,2.56,1.166,1.996,2.495
								l-5.209,12.278C219.442,337.929,207.805,336.168,207.599,329.247z"/>
						</g>
					</g>
					<g>
						<g>
							<path style="fill:#594B54;" d="M216.802,336.181c1.609-2.934,2.809-6.174,4.706-9.632c0,0-9.676,2.253-11.013,4.767
								C210.494,331.316,213.898,336.145,216.802,336.181z"/>
						</g>
					</g>
				</g>
				<g>
					<g>
						<path style="fill:#352422;" d="M214.405,355.724c-0.923,0.559-2.297,0.613-2.297,0.613c-1.504,3.454-6.917,5.629-11.531,4.936
							c-7.201-1.085-8.096-5.329-8.096-5.329s-2.112,0.541-3.21,0.313c-3.321-0.692-10.465-3.154-11.292-12.038
							c-0.37-3.972,1.562-7.342,3.674-9.775c2.312-2.663,5.286-4.666,8.578-5.93c17.507-6.723,31.497,7.102,32.197,16.206
							C222.929,351.273,217.104,354.096,214.405,355.724z"/>
					</g>
				</g>
				<g>
					<g>
						<path style="fill:#594B54;" d="M210.551,341.758c0.119,1.211-0.303,2.243-0.942,2.306c-0.639,0.063-1.253-0.868-1.372-2.078
							c-0.119-1.211,0.303-2.243,0.942-2.306C209.818,339.616,210.433,340.547,210.551,341.758z"/>
					</g>
				</g>
				<g>
					<g>
						<path style="fill:#594B54;" d="M194.642,342.014c0.119,1.211-0.303,2.243-0.942,2.306c-0.639,0.063-1.253-0.868-1.372-2.079
							c-0.119-1.211,0.303-2.243,0.942-2.306C193.909,339.872,194.523,340.803,194.642,342.014z"/>
					</g>
				</g>
				<g>
					<g>
						<path style="fill:#FFFFFF;" d="M214.405,355.724c-0.923,0.559-2.297,0.613-2.297,0.613c-1.504,3.454-6.917,5.629-11.531,4.936
							c-7.201-1.085-8.096-5.329-8.096-5.329s-2.112,0.541-3.21,0.313c0-0.002,0-0.002,0-0.002s0.739-5.309,5.956-7.865
							c5.219-2.558,5.789-9.135,5.523-15.258c-0.007-0.164,0.23-0.196,0.265-0.035c0.775,3.529,2.617,10.651,5.143,12.21
							C209.55,347.398,211.689,350.321,214.405,355.724C214.464,355.84,214.357,355.605,214.405,355.724z"/>
					</g>
				</g>
			</g>
			<g>
				<g>
					<g>
						<g>
							<path style="fill:#FF8A7C;" d="M205.012,347.503c0,0-4.409-0.187-5.542,0.425c-1.9,1.026,1.48,4.479,3.506,4.66
								c2.025,0.182,3.827-2.291,3.7-3.817C206.55,347.246,205.012,347.503,205.012,347.503z"/>
						</g>
					</g>
				</g>
				<g>
					<g>
						<g>
							<path style="fill:#FF8A7C;" d="M199.94,356.095c-0.475-0.042-0.986-0.182-1.474-0.481c-1.135-0.696-1.784-2.028-1.926-3.958
								c-0.011-0.146,0.099-0.274,0.245-0.285c0.147-0.009,0.274,0.099,0.285,0.245c0.13,1.751,0.693,2.943,1.674,3.545
								c1.016,0.622,2.174,0.414,2.645,0.216c2.44-1.023,1.313-4.89,1.301-4.929c-0.042-0.141,0.038-0.289,0.178-0.331
								c0.141-0.042,0.289,0.038,0.331,0.178c0.053,0.178,1.271,4.366-1.605,5.572C201.239,356.016,200.628,356.156,199.94,356.095z
								"/>
						</g>
					</g>
				</g>
				<g>
					<g>
						<g>
							<path style="fill:#FF8A7C;" d="M206.017,355.606c-0.485-0.043-1.021-0.196-1.515-0.546c-0.977-0.692-1.48-1.922-1.493-3.658
								c-0.001-0.147,0.117-0.267,0.264-0.268c0.145-0.002,0.267,0.117,0.268,0.264c0.012,1.555,0.439,2.641,1.269,3.228
								c0.857,0.607,1.888,0.491,2.314,0.344c2.202-0.757,1.437-4.24,1.429-4.275c-0.033-0.143,0.057-0.285,0.2-0.318
								c0.143-0.032,0.285,0.057,0.318,0.2c0.037,0.162,0.879,3.984-1.774,4.896C207.008,355.571,206.543,355.653,206.017,355.606z"
								/>
						</g>
					</g>
				</g>
			</g>
		</g>
		<g>
			<g>
				<g>
					<path style="fill:#352422;" d="M100.478,345.933c0,0-0.989,8.079,8.803,8.212c9.792,0.132,33.844-0.601,33.844-0.601
						s16.538-0.526,12.474-7.388C148.519,334.2,109.038,327.449,100.478,345.933z"/>
				</g>
				<g>
					<g>
						<path style="fill:#FFFFFF;" d="M111.069,354.172c0,0-0.258-0.05-0.7-0.062c-2.956-0.082-5.593,1.851-6.484,4.671
							c-0.81,2.553-2.536,6.226-5.823,6.354H98.06c-0.058,0-0.114,0.002-0.174,0.002c-0.224,0-0.444-0.008-0.658-0.026
							c-0.616-0.05-1.193-0.168-1.729-0.35c-0.32-0.108-0.626-0.236-0.915-0.386c-0.664-0.342-1.247-0.787-1.747-1.319
							c-0.334-0.354-0.63-0.746-0.883-1.169c-1.085-1.797-1.447-4.154-0.939-6.59c1.441-6.918,7.869-10.426,13.266-11.547
							C110.787,344.226,111.069,354.172,111.069,354.172z"/>
					</g>
					<g>
						<g style="opacity:0.3;">
							<g>
								<g>
									<g>
										<g>
											<g>
												<path style="fill:#352422;" d="M93.017,360.017c-0.106,1.019-0.16,2.047-0.18,3.04c-0.334-0.354-0.63-0.746-0.883-1.169
													c0.03-0.654,0.076-1.311,0.142-1.967c0.026-0.252,0.256-0.436,0.506-0.412
													C92.853,359.537,93.039,359.765,93.017,360.017z"/>
											</g>
										</g>
									</g>
								</g>
							</g>
							<g>
								<g>
									<g>
										<g>
											<g>
												<path style="fill:#352422;" d="M98.67,360.87c-0.09,1.415-0.274,2.832-0.494,4.152l-0.114,0.114H98.06
													c-0.058,0-0.114,0.002-0.174,0.002c-0.224,0-0.444-0.008-0.658-0.026c0.232-1.355,0.428-2.826,0.518-4.299
													c0.018-0.254,0.24-0.446,0.492-0.432C98.488,360.399,98.684,360.616,98.67,360.87z"/>
											</g>
										</g>
									</g>
								</g>
							</g>
							<g>
								<g>
									<g>
										<g>
											<g>
												<path style="fill:#352422;" d="M95.862,359.539c-0.246,1.785-0.342,3.602-0.362,5.223
													c-0.32-0.108-0.626-0.236-0.915-0.386c0.03-1.557,0.132-3.274,0.366-4.963c0.036-0.254,0.268-0.428,0.52-0.394
													C95.722,359.055,95.898,359.287,95.862,359.539z"/>
											</g>
										</g>
									</g>
								</g>
							</g>
						</g>
					</g>
				</g>
				<g>
					<g>
						<path style="fill:#FFFFFF;" d="M142.293,353.569c-0.007,0.111-0.117,0.124-0.007,0.111c0.118-0.013-0.088-0.008,0.118-0.013
							c2.956-0.082,6.368,2.294,7.26,5.114c0.81,2.553,2.536,6.226,5.823,6.354h0.002c0.058,0,0.114,0.002,0.174,0.002
							c0.224,0,0.444-0.008,0.658-0.026c0.616-0.05,1.193-0.168,1.729-0.35c0.32-0.108,0.626-0.236,0.915-0.386
							c0.664-0.342,1.247-0.787,1.747-1.319c0.334-0.354,0.63-0.746,0.883-1.169c1.085-1.797,1.447-4.154,0.939-6.59
							c-1.441-6.918-7.869-10.426-13.266-11.547C143.335,344.184,142.38,352.111,142.293,353.569z"/>
					</g>
					<g>
						<g style="opacity:0.3;">
							<g>
								<g>
									<g>
										<g>
											<g>
												<path style="fill:#352422;" d="M160.532,360.017c0.106,1.019,0.16,2.047,0.18,3.04c0.334-0.354,0.63-0.746,0.883-1.169
													c-0.03-0.654-0.076-1.311-0.142-1.967c-0.026-0.252-0.256-0.436-0.506-0.412
													C160.696,359.537,160.51,359.765,160.532,360.017z"/>
											</g>
										</g>
									</g>
								</g>
							</g>
							<g>
								<g>
									<g>
										<g>
											<g>
												<path style="fill:#352422;" d="M154.88,360.87c0.09,1.415,0.274,2.832,0.494,4.152l0.114,0.114h0.002
													c0.058,0,0.114,0.002,0.174,0.002c0.224,0,0.444-0.008,0.658-0.026c-0.232-1.355-0.428-2.826-0.518-4.299
													c-0.018-0.254-0.24-0.446-0.492-0.432C155.061,360.399,154.866,360.616,154.88,360.87z"/>
											</g>
										</g>
									</g>
								</g>
							</g>
							<g>
								<g>
									<g>
										<g>
											<g>
												<path style="fill:#352422;" d="M157.688,359.539c0.246,1.785,0.342,3.602,0.362,5.223
													c0.32-0.108,0.626-0.236,0.915-0.386c-0.03-1.557-0.132-3.274-0.366-4.963c-0.036-0.254-0.268-0.428-0.52-0.394
													C157.828,359.055,157.652,359.287,157.688,359.539z"/>
											</g>
										</g>
									</g>
								</g>
							</g>
						</g>
					</g>
				</g>
			</g>
			<g>
				<g>
					<g>
						<g>
							<path style="fill:#352422;" d="M133.747,330.704c0,0,5.253-5.995,13.41-9.69c1.187-0.538,2.494,0.471,2.278,1.755
								l-2.416,14.36C147.02,337.129,135.626,337.369,133.747,330.704z"/>
						</g>
					</g>
					<g>
						<g>
							<path style="fill:#594B54;" d="M144.357,335.199c0.849-3.236,1.228-6.671,2.229-10.486c0,0-8.841,4.533-9.528,7.296
								C137.058,332.009,141.531,335.868,144.357,335.199z"/>
						</g>
					</g>
				</g>
				<g>
					<g>
						<g>
							<path style="fill:#352422;" d="M119.633,329.247c0,0-6.4-4.438-15.056-6.091c-1.418-0.271-2.56,1.166-1.996,2.495
								l5.209,12.278C107.79,337.929,119.427,336.168,119.633,329.247z"/>
						</g>
					</g>
					<g>
						<g>
							<path style="fill:#594B54;" d="M110.43,336.181c-1.609-2.934-2.809-6.174-4.706-9.632c0,0,9.676,2.253,11.014,4.767
								C116.738,331.316,113.334,336.145,110.43,336.181z"/>
						</g>
					</g>
				</g>
				<g>
					<g>
						<path style="fill:#352422;" d="M112.826,355.724c0.924,0.559,2.297,0.613,2.297,0.613c1.504,3.454,6.917,5.629,11.531,4.936
							c7.201-1.085,8.096-5.329,8.096-5.329s2.112,0.541,3.21,0.313c3.321-0.692,10.465-3.154,11.292-12.038
							c0.37-3.972-1.562-7.342-3.673-9.775c-2.312-2.663-5.286-4.666-8.578-5.93c-17.507-6.723-31.497,7.102-32.197,16.206
							C104.303,351.273,110.128,354.096,112.826,355.724z"/>
					</g>
				</g>
				<g>
					<g>
						<path style="fill:#594B54;" d="M134.495,342.304c0.046,1.216-0.437,2.221-1.078,2.245c-0.642,0.024-1.199-0.941-1.245-2.157
							c-0.046-1.216,0.437-2.221,1.078-2.245C133.891,340.123,134.449,341.088,134.495,342.304z"/>
					</g>
				</g>
				<g>
					<g>
						<path style="fill:#594B54;" d="M118.589,342.276c-0.163,1.205-0.81,2.113-1.447,2.027c-0.636-0.086-1.02-1.133-0.858-2.338
							c0.163-1.206,0.81-2.113,1.447-2.027C118.367,340.024,118.751,341.071,118.589,342.276z"/>
					</g>
				</g>
				<g>
					<g>
						<path style="fill:#FFFFFF;" d="M112.826,355.724c0.924,0.559,2.297,0.613,2.297,0.613c1.504,3.454,6.917,5.629,11.531,4.936
							c7.201-1.085,8.096-5.329,8.096-5.329s2.112,0.541,3.21,0.313c0-0.002,0-0.002,0-0.002s-0.739-5.309-5.956-7.865
							c-5.218-2.558-5.789-9.135-5.523-15.258c0.007-0.164-0.23-0.196-0.265-0.035c-0.775,3.529-2.617,10.651-5.143,12.21
							C117.681,347.398,115.543,350.321,112.826,355.724C112.767,355.84,112.874,355.605,112.826,355.724z"/>
					</g>
				</g>
			</g>
			<g>
				<g>
					<g>
						<g>
							<path style="fill:#FF8A7C;" d="M122.22,347.503c0,0,4.409-0.187,5.542,0.425c1.9,1.026-1.48,4.479-3.506,4.66
								c-2.025,0.182-3.827-2.291-3.7-3.817C120.682,347.246,122.22,347.503,122.22,347.503z"/>
						</g>
					</g>
				</g>
				<g>
					<g>
						<g>
							<path style="fill:#FF8A7C;" d="M127.291,356.095c0.475-0.042,0.986-0.182,1.474-0.481c1.135-0.696,1.783-2.028,1.926-3.958
								c0.011-0.146-0.099-0.274-0.245-0.285c-0.147-0.009-0.274,0.099-0.285,0.245c-0.13,1.751-0.693,2.943-1.674,3.545
								c-1.015,0.622-2.174,0.414-2.644,0.216c-2.44-1.023-1.313-4.89-1.301-4.929c0.042-0.141-0.038-0.289-0.178-0.331
								c-0.141-0.042-0.289,0.038-0.331,0.178c-0.053,0.178-1.271,4.366,1.605,5.572
								C125.992,356.016,126.604,356.156,127.291,356.095z"/>
						</g>
					</g>
				</g>
				<g>
					<g>
						<g>
							<path style="fill:#FF8A7C;" d="M121.214,355.606c0.485-0.043,1.02-0.196,1.515-0.546c0.977-0.692,1.479-1.922,1.493-3.658
								c0.001-0.147-0.117-0.267-0.264-0.268c-0.145-0.002-0.267,0.117-0.268,0.264c-0.012,1.555-0.439,2.641-1.269,3.228
								c-0.857,0.607-1.888,0.491-2.314,0.344c-2.202-0.757-1.437-4.24-1.429-4.275c0.032-0.143-0.057-0.285-0.2-0.318
								c-0.143-0.032-0.285,0.057-0.318,0.2c-0.037,0.162-0.879,3.984,1.774,4.896C120.223,355.571,120.689,355.653,121.214,355.606
								z"/>
						</g>
					</g>
				</g>
			</g>
		</g>
		<g>
			<g>
				<g>
					<path style="fill:#FF693B;" d="M180.317,281.106h-43.985c-2.719,0-4.922-2.204-4.922-4.922v-25.785
						c0-2.719,2.204-4.922,4.922-4.922h43.985c2.719,0,4.922,2.204,4.922,4.922v25.785
						C185.239,278.902,183.035,281.106,180.317,281.106z"/>
				</g>
			</g>
			<g>
				<g>
					<path style="fill:#FF693B;" d="M173.552,277.628l-4.01,13.701c-0.247,0.843-1.408,0.929-1.776,0.131l-6.065-13.16
						L173.552,277.628z"/>
				</g>
			</g>
			<g>
				<g>
					<g>
						<g>
							<path style="fill:#FFFFFF;" d="M170.243,260.649c-0.959,6.091-12.32,13.72-12.32,13.72s-10.947-7.628-11.572-13.72
								c-0.679-6.604,7.138-8.629,12.045-3.651C163.574,252.02,171.283,254.046,170.243,260.649z"/>
						</g>
					</g>
				</g>
			</g>
		</g>
	</g>
	<g>
		<g>
			<g>
				<path style="fill:#FFD099;" d="M257.218,202.707H74.054c-3.653,0-6.626-2.972-6.626-6.626v-88.959
					c0-3.654,2.972-6.626,6.626-6.626h183.163c3.654,0,6.626,2.972,6.626,6.626v88.959
					C263.843,199.735,260.871,202.707,257.218,202.707z M74.054,103.848c-1.806,0-3.274,1.469-3.274,3.275v88.959
					c0,1.805,1.469,3.275,3.274,3.275h183.163c1.806,0,3.275-1.469,3.275-3.275v-88.959c0-1.806-1.469-3.275-3.275-3.275H74.054z"/>
			</g>
		</g>
		<text transform="matrix(1 0 0 1 85.2925 141.6733)" style="fill:#352422; font-family:'Montserrat-Black'; font-size:42.8149px;">ADOPT</text>
		
			<text transform="matrix(1 0 0 1 142.2876 192.2212)" style="fill:#352422; font-family:'Montserrat-Black'; font-size:50.0283px;">PET</text>
		<g>
			<g>
				<path style="fill:#FF693B;" d="M132.781,169.111c-1.955,17.228-25.284,27.987-25.284,27.987s-23.327-10.759-25.284-27.987
					c-1.723-15.187,19.475-16.94,25.284-6.414C113.306,152.171,134.504,153.923,132.781,169.111z"/>
			</g>
			<text transform="matrix(1 0 0 1 96.27 185.2837)" style="fill:#FFFFFF; font-family:'Montserrat-Black'; font-size:34.2607px;">a</text>
		</g>
	</g>
	<g>
		<g>
			<g>
				<g>
					<g>
						<g>
							<g>
								<polygon style="fill:#FDB086;" points="423.448,406.707 440.469,409.465 436.959,426.421 420.707,425.187 								"/>
							</g>
						</g>
					</g>
				</g>
			</g>
			<g>
				<g>
					<path style="fill:#7CAC44;" d="M464.669,456.834c0.037,1.752-1.372,3.192-3.127,3.192h-39.097
						c0.337-1.232,0.798-2.408,1.36-3.526c0.026-0.058,0.056-0.114,0.084-0.17c5.11-10.026,17.905-15.344,17.905-15.344
						c0.837-5.052-6.843-9.474-8.296-10.779c-4.208-3.785,1.858-8.604,3.572-12.255c1.716-3.651-0.546-9.124-0.546-9.124
						c1.116-2.119,4.461-0.406,4.461-0.406c0.06,0.009,0.121,0.017,0.181,0.026c0.645,0.089,1.351,0.183,2.106,0.287
						c4.476,0.602,10.676,1.47,15.952,3.084c0.576,0.175,1.142,0.354,1.69,0.535c1.012,0.337,1.968,0.684,2.849,1.038l0.034,1.649
						l0.035,1.657L464.669,456.834z"/>
				</g>
				<g>
					<g>
						<path style="fill:#4A7F30;" d="M452.499,448.622c-0.207,0-0.409-0.101-0.531-0.287c-3.95-6.038-9.879-6.52-9.938-6.524
							c-0.349-0.024-0.612-0.327-0.589-0.675c0.023-0.349,0.321-0.617,0.673-0.589c0.268,0.017,6.606,0.508,10.914,7.095
							c0.192,0.293,0.109,0.686-0.183,0.877C452.738,448.589,452.618,448.622,452.499,448.622z"/>
					</g>
					<g>
						<path style="fill:#4A7F30;" d="M443.559,441.991c-0.301,0-0.569-0.216-0.623-0.523c-0.061-0.345,0.169-0.674,0.513-0.735
							c4.093-0.726,8.087-0.156,8.255-0.132c0.346,0.051,0.586,0.373,0.535,0.719c-0.051,0.346-0.375,0.586-0.719,0.535
							c-0.039-0.006-3.966-0.563-7.85,0.126C443.633,441.987,443.596,441.991,443.559,441.991z"/>
					</g>
				</g>
				<g>
					<g>
						<g>
							<g>
								<g>
									<g>
										<g>
											<path style="fill:#4A7F30;" d="M463.831,416.697c-2.462,1.081-5.572,1.696-9.327,1.049
												c-7.154-1.239-11.317-6.096-13.339-9.299c0.645,0.089,1.351,0.183,2.106,0.287c2.093,2.866,5.784,6.485,11.5,7.473
												c3.725,0.643,6.727-0.05,9.025-1.168L463.831,416.697z"/>
										</g>
									</g>
								</g>
							</g>
						</g>
					</g>
				</g>
				<g>
					<g>
						<g>
							<g>
								<g>
									<path style="fill:#FFFFFF;" d="M439.539,429.649c0.16-0.457-0.004-0.981-0.427-1.259c-0.498-0.327-1.167-0.188-1.494,0.311
										l-2.311,3.524c-0.328,0.497-0.188,1.167,0.311,1.494c0.498,0.327,1.167,0.188,1.494-0.311l2.311-3.524
										C439.471,429.809,439.51,429.73,439.539,429.649z"/>
								</g>
							</g>
						</g>
					</g>
				</g>
				<g>
					<g>
						<g>
							<g>
								<g>
									<path style="fill:#FFFFFF;" d="M442.012,432.49c0.16-0.457-0.004-0.981-0.427-1.259c-0.498-0.327-1.167-0.188-1.494,0.311
										l-2.311,3.524c-0.328,0.497-0.188,1.167,0.311,1.494c0.498,0.327,1.167,0.188,1.494-0.311l2.311-3.524
										C441.945,432.651,441.984,432.572,442.012,432.49z"/>
								</g>
							</g>
						</g>
					</g>
				</g>
				<g>
					<g>
						<g>
							<g>
								<g>
									<path style="fill:#FFFFFF;" d="M444.602,436.212c0.16-0.457-0.004-0.981-0.427-1.258c-0.498-0.327-1.167-0.188-1.494,0.311
										l-2.311,3.524c-0.328,0.497-0.188,1.167,0.311,1.494c0.498,0.327,1.167,0.188,1.494-0.311l2.311-3.524
										C444.534,436.372,444.573,436.293,444.602,436.212z"/>
								</g>
							</g>
						</g>
					</g>
				</g>
				<g>
					<path style="fill:#4A7F30;" d="M461.805,460.026h-39.36c0.337-1.232,0.798-2.408,1.36-3.526l34.739,0.639
						c1.601,0.029,2.909-1.271,2.889-2.872l-0.518-41.914c1.012,0.337,1.968,0.684,2.849,1.038l0.912,43.705
						C464.708,458.704,463.413,460.026,461.805,460.026z"/>
				</g>
			</g>
			<g>
				<g>
					<g>
						<path style="fill:#FDB086;" d="M281.136,284.603c9.965-6.177,20.437-14.715,24.587-18.193c0.17-0.144,0.329-0.278,0.477-0.404
							c0.355-0.297,0.645-0.545,0.866-0.733c0.331-0.283,0.507-0.435,0.507-0.435c-0.014-0.049-0.033-0.095-0.042-0.145
							c-10.375-64.111,1.593-78.282,1.593-78.282l15.114,57.124c0,0,22.175,23.36,7.317,34.965
							c-7.766,6.066-22.917,12.817-35.611,17.88c-3.667,1.462-7.851,0.024-9.856-3.376L281.136,284.603z"/>
					</g>
				</g>
				<g>
					<g>
						<g>
							<g>
								<path style="fill:#FF8A7C;" d="M308.854,289.578c0.005,0.483-0.387,0.88-0.874,0.885c-0.377,0.003-0.702-0.236-0.827-0.567
									c-0.037-0.097-0.056-0.201-0.058-0.307c-0.022-3.492-0.423-7.028-1.041-10.427c0.216-0.057,0.416-0.11,0.604-0.161
									c0.448-0.116,0.816-0.216,1.097-0.29c0.131,0.698,0.249,1.403,0.359,2.111C308.558,283.703,308.831,286.651,308.854,289.578
									z"/>
							</g>
						</g>
					</g>
				</g>
				<g>
					<g>
						<g>
							<g>
								<path style="fill:#FF8A7C;" d="M312.491,285.655c-0.321,0.2-0.718,0.167-1.002-0.053c-0.082-0.061-0.15-0.139-0.207-0.229
									c-0.974-1.565-2.041-3.085-3.169-4.551c-0.476-0.618-0.962-1.225-1.455-1.82c0.448-0.116,0.816-0.216,1.097-0.29
									c0.42-0.114,0.645-0.176,0.645-0.176c0.009-0.05,0.016-0.098,0.025-0.149c1.567,1.922,3.043,3.946,4.353,6.053
									C313.03,284.855,312.906,285.397,312.491,285.655z"/>
							</g>
						</g>
					</g>
				</g>
			</g>
			<g>
				<g>
					<g>
						<g>
							<g>
								<g>
									<g>
										<g>
											<g>
												<g>
													<polygon style="fill:#FDB086;" points="300.239,415.814 299.627,431.627 282.315,431.623 281.563,415.343 
																											"/>
												</g>
											</g>
										</g>
									</g>
								</g>
							</g>
							<g>
								<g>
									<g>
										<g>
											<g>
												<path style="fill:#7CAC44;" d="M239.587,458.96l65.48,0.012c0.487-0.885,0.753-2.14,0.862-3.637
													c0.41-5.539-1.354-14.379-2.218-19.952c-0.105-0.651-0.195-1.259-0.265-1.809c-0.121-0.931-0.195-1.707-0.194-2.276
													c0.001-4.549-4.026-3.77-4.026-3.77c-6.627,6.496-14.128-3.249-18.51-0.054c0,0-1.887,1.352-7.087,6.028
													c-5.196,4.676-14.041,7.762-21.568,10.91c-9.718,4.059-12.474,8.116-13.012,10.911
													C238.624,457.537,239.587,458.96,239.587,458.96z"/>
											</g>
										</g>
									</g>
								</g>
								<g>
									<g>
										<g>
											<g>
												<g>
													<g>
														<g>
															<path style="fill:#4A7F30;" d="M239.587,458.96l65.48,0.012c0.487-0.885,0.753-2.14,0.862-3.637l-66.88-0.012
																C238.624,457.537,239.587,458.96,239.587,458.96z"/>
														</g>
													</g>
												</g>
											</g>
										</g>
									</g>
								</g>
								<g>
									<g>
										<g>
											<g>
												<g>
													<g>
														<g>
															<g>
																<path style="fill:#4A7F30;" d="M298.386,458.971l1.945,0c-1.941-2.218-3.756-5.621-3.518-10.485
																	c0.317-6.47,4.2-10.831,6.897-13.103c-0.105-0.651-0.195-1.259-0.265-1.809c-2.908,2.221-7.808,7.085-8.192,14.833
																	C295.028,453.053,296.551,456.518,298.386,458.971z"/>
															</g>
														</g>
													</g>
												</g>
											</g>
										</g>
									</g>
								</g>
								<g>
									<g>
										<g>
											<g>
												<g>
													<g>
														<g>
															<path style="fill:#FFFFFF;" d="M274.739,437.366c0.484,0,0.925-0.328,1.047-0.819
																c0.144-0.578-0.209-1.164-0.787-1.307l-4.09-1.016c-0.578-0.145-1.164,0.208-1.307,0.787
																c-0.144,0.578,0.209,1.164,0.787,1.307l4.09,1.016C274.565,437.355,274.653,437.366,274.739,437.366z"/>
														</g>
													</g>
												</g>
											</g>
										</g>
									</g>
								</g>
								<g>
									<g>
										<g>
											<g>
												<g>
													<g>
														<g>
															<path style="fill:#FFFFFF;" d="M278.805,433.961c0.484,0,0.924-0.328,1.047-0.819
																c0.144-0.578-0.208-1.164-0.787-1.307l-4.09-1.016c-0.578-0.145-1.164,0.208-1.307,0.787
																c-0.144,0.578,0.209,1.164,0.787,1.307l4.09,1.016C278.631,433.95,278.718,433.961,278.805,433.961z"/>
														</g>
													</g>
												</g>
											</g>
										</g>
									</g>
								</g>
								<g>
									<g>
										<g>
											<g>
												<g>
													<g>
														<g>
															<path style="fill:#FFFFFF;" d="M270.648,439.743c0.484,0,0.925-0.328,1.047-0.819
																c0.144-0.578-0.209-1.164-0.787-1.307l-4.09-1.016c-0.578-0.145-1.164,0.208-1.307,0.787
																c-0.144,0.578,0.209,1.164,0.787,1.307l4.09,1.016C270.475,439.732,270.562,439.743,270.648,439.743z"/>
														</g>
													</g>
												</g>
											</g>
										</g>
									</g>
								</g>
								<g>
									<g>
										<g>
											<g>
												<g>
													<g>
														<g>
															<path style="fill:#FFFFFF;" d="M266.557,442.027c0.484,0,0.925-0.328,1.046-0.819
																c0.144-0.578-0.209-1.164-0.787-1.307l-4.09-1.016c-0.579-0.145-1.164,0.209-1.307,0.787
																c-0.144,0.578,0.209,1.164,0.787,1.307l4.091,1.016C266.384,442.017,266.471,442.027,266.557,442.027z"/>
														</g>
													</g>
												</g>
											</g>
										</g>
									</g>
								</g>
								<g>
									<g>
										<g>
											<g>
												<g>
													<g>
														<g>
															<path style="fill:#FFFFFF;" d="M262.097,444.141c0.484,0,0.925-0.328,1.047-0.819
																c0.144-0.578-0.209-1.164-0.787-1.307l-4.09-1.016c-0.579-0.144-1.164,0.208-1.308,0.787
																c-0.144,0.578,0.209,1.163,0.787,1.307l4.09,1.016C261.924,444.13,262.011,444.141,262.097,444.141z"/>
														</g>
													</g>
												</g>
											</g>
										</g>
									</g>
								</g>
								<g>
									<g>
										<g>
											<g>
												<g>
													<g>
														<g>
															<path style="fill:#FFFFFF;" d="M257.26,445.942c0.484,0,0.925-0.328,1.047-0.819
																c0.144-0.578-0.209-1.164-0.787-1.307l-4.09-1.016c-0.578-0.145-1.164,0.208-1.308,0.787
																c-0.144,0.578,0.209,1.164,0.787,1.307l4.09,1.016C257.086,445.932,257.174,445.942,257.26,445.942z"/>
														</g>
													</g>
												</g>
											</g>
										</g>
									</g>
								</g>
							</g>
						</g>
						<g>
							<g>
								<g>
									<path style="fill:#FF693B;" d="M380.155,351.444c-0.14,0.043-0.283,0.084-0.423,0.127
										c-17.01,4.996-38.5,0.274-55.539-5.587c-16.302-5.607-28.527-12.258-28.855-12.435c0.263,0.192,8.669,6.433,9.772,23.505
										c1.275,19.761-3.918,62.377-3.918,62.377l-20.407-0.437c0,0-30.975-103.631-19.143-124.303
										c8.354-14.595,57.026-5.563,97.136,4.249c1.824,0.445,3.619,0.891,5.384,1.336c23.987,6.042,42.485,11.826,42.485,11.826
										S413.652,341.239,380.155,351.444z"/>
								</g>
							</g>
						</g>
						<g>
							<g>
								<g>
									<g>
										<path style="fill:#CC3A12;" d="M297.745,412.076c-0.008,0-0.015,0-0.023,0c-0.35-0.012-0.623-0.306-0.611-0.656
											c0.016-0.444,1.558-44.618-0.857-60.544c-2.4-15.831-11.873-28.842-11.969-28.972c-0.178-0.242-0.162-0.577,0.04-0.8
											c0.202-0.223,0.533-0.274,0.792-0.121c0.288,0.17,29.135,17.025,55.688,21.992c0.344,0.064,0.571,0.396,0.506,0.74
											c-0.064,0.344-0.394,0.57-0.74,0.507c-22.377-4.186-46.332-16.724-53.766-20.83c2.832,4.451,8.844,15.046,10.701,27.295
											c2.432,16.042,0.886,60.334,0.87,60.779C298.366,411.807,298.084,412.076,297.745,412.076z"/>
									</g>
								</g>
							</g>
							<g>
								<g>
									<g>
										<path style="fill:#CC3A12;" d="M301.413,412.453c-0.007,0-0.014,0-0.022,0l-22.336-0.755
											c-0.35-0.012-0.624-0.305-0.612-0.655c0.012-0.35,0.296-0.624,0.655-0.612l22.336,0.755
											c0.35,0.012,0.624,0.305,0.612,0.655C302.035,412.184,301.753,412.453,301.413,412.453z"/>
									</g>
								</g>
							</g>
						</g>
						<g>
							<g>
								<g>
									<path style="fill:#CC3A12;" d="M384.225,330.108l-4.493,21.464c-17.01,4.996-38.5,0.274-55.539-5.587
										c16.118-4.176,29.977-35.504,34.585-47.043c1.057-2.644,1.627-4.249,1.627-4.249l3.757,5.585L384.225,330.108z"/>
								</g>
							</g>
						</g>
						<g>
							<g>
								<g>
									<g>
										<path style="fill:#008BE0;" d="M408.047,301.989c-10.765,0.64-21.564,0.566-32.331-0.137
											c-6.872-0.45-13.784-1.025-20.59-2.098c-6.502-1.027-12.916-2.533-19.291-4.153c-6.173-1.57-12.32-3.241-18.524-4.677
											c-0.021-1.456-0.047-2.837-0.076-4.143c-0.002-0.163-0.006-0.323-0.009-0.482c-0.006-0.37-0.015-0.731-0.027-1.088
											c-0.004-0.148-0.008-0.296-0.015-0.444c-0.032-1.443-0.07-2.772-0.112-3.988c-0.025-0.454-0.046-0.872-0.053-1.312
											c-0.049-1.441-0.074-2.805-0.091-4.086c-0.032-2.163-0.009-4.083,0.015-5.809c0.015-1.09,0.034-2.102,0.053-3.048
											c0.013-0.632,0.023-1.236,0.032-1.815c0.095-6.314-0.129-9.679-3.152-15.201c-0.872-1.595-1.975-3.365-3.382-5.45
											c-0.564-0.837-1.09-1.658-1.576-2.461c-0.188-0.306-0.37-0.613-0.545-0.915c-2.326-4.001-3.718-7.577-4.464-10.78
											c-1.267-5.431-0.693-9.815,0.306-13.461c0.095-0.349,0.194-0.691,0.296-1.025c1.056-3.471,2.393-6.249,2.643-8.632
											c0.03-0.283,0.057-0.594,0.082-0.925c0.027-0.332,0.053-0.684,0.078-1.058c0.441-6.485,0.803-19.179,4.367-27.276
											c0.139-0.319,0.285-0.632,0.435-0.936c0.919-1.857,2.032-3.424,3.382-4.548c1.789-1.46,3.604-2.613,5.376-3.505
											c0.606-0.315,1.231-0.615,1.827-0.864c5.214-2.225,9.481-2.313,9.481-2.313c8.858-1.134,16.564-1.109,23.197-0.226
											c0.623,0.076,1.232,0.167,1.844,0.275c1.749,0.287,3.416,0.638,5.004,1.046c0.536,0.137,1.065,0.281,1.582,0.433
											c1.308,0.378,2.558,0.799,3.752,1.255c0.841,0.319,1.656,0.661,2.442,1.018c0.368,0.167,0.729,0.336,1.082,0.509
											c0.754,0.368,1.483,0.754,2.182,1.153c3.416,1.952,6.183,4.257,8.336,6.773c0.234,0.275,0.463,0.553,0.682,0.832
											c1.058,1.342,1.946,2.738,2.67,4.166c2.865,5.661,5.926,18.41,8.995,34.309c0.188,1.042,0.397,2.079,0.587,3.135
											c0.15,0.75,0.283,1.536,0.435,2.301c0.507,2.753,1.018,5.568,1.521,8.45c1.358,7.7,2.7,15.787,4.018,23.945
											c1.134,6.988,2.248,14.018,3.325,20.867c0.137,0.868,0.27,1.732,0.405,2.594c0.116,0.744,0.232,1.483,0.349,2.222
											c0.061,0.382,0.12,0.765,0.18,1.147c0.051,0.317,0.101,0.634,0.15,0.949c0.712,4.47,1.409,8.822,2.079,13
											c0.068,0.42,0.135,0.837,0.203,1.253c0.163,1.014,0.323,2.017,0.484,3.01
											C407.806,300.521,407.929,301.258,408.047,301.989z"/>
									</g>
								</g>
							</g>
						</g>
						<g>
							<g>
								<g>
									<path style="fill:#0067CD;" d="M314.464,191.508c-0.911,1.371-1.629,2.453-0.805,5.636
										c1.018,3.921-1.221,7.115-3.957,8.243c-0.78,0.323-1.561,0.477-2.32,0.477c-0.049,0-0.099,0-0.148-0.004
										c0.027-0.332,0.053-0.684,0.078-1.058c0.699,0.008,1.38-0.141,1.986-0.391c2.313-0.953,4.204-3.665,3.338-7.003
										c-0.942-3.64-0.023-5.021,0.948-6.485c0.885-1.331,1.889-2.841,1.61-6.707c-0.296-4.138-2.005-5.923-3.515-6.69
										c0.139-0.319,0.285-0.632,0.435-0.936c1.794,0.887,3.803,2.919,4.134,7.55
										C316.553,188.367,315.395,190.108,314.464,191.508z"/>
								</g>
							</g>
						</g>
						<g>
							<g>
								<g>
									<path style="fill:#0067CD;" d="M309.679,232.245c2.07,4.073,1.398,6.614,0.469,8.027c-0.33,0.501-0.744,0.944-1.232,1.325
										c-0.188-0.306-0.37-0.613-0.545-0.915c0.353-0.292,0.653-0.623,0.894-0.991c1.111-1.692,0.93-4.1-0.528-6.969
										c-2.233-4.394-0.655-5.989,0.737-7.398c1.073-1.086,1.922-1.943,1.261-4.092c-1.158-3.762-4.749-4.607-6.521-4.791
										c0.095-0.349,0.194-0.691,0.296-1.025c2.077,0.258,5.942,1.303,7.235,5.503c0.847,2.755-0.412,4.026-1.521,5.148
										C308.919,227.389,307.791,228.529,309.679,232.245z"/>
								</g>
							</g>
						</g>
						<g>
							<g>
								<g>
									<path style="fill:#0067CD;" d="M343.584,203.661c-1.413-1.741-4.064-2.862-6.8-1.447c-1.472,0.76-3.429,1.31-5.811,1.631
										c-2.949,0.397-5.273-0.412-7.142-1.06c-2.651-0.921-4.941-1.715-6.781,2.055c-1.185,2.432-0.896,5,0.818,7.235
										c1.779,2.322,4.77,3.781,7.518,3.781c0.461,0,0.915-0.04,1.354-0.127c2.151-0.414,3.173-1.291,4.077-2.062
										c1.282-1.096,2.387-2.045,6.916-1.314c0.444,0.072,0.875,0.106,1.293,0.106c1.876,0,3.471-0.71,4.576-2.062
										C345.488,208.085,344.953,205.347,343.584,203.661z M342.782,209.73c-1.101,1.348-2.833,1.91-4.88,1.58
										c-5.013-0.807-6.352,0.34-7.772,1.555c-0.843,0.72-1.715,1.466-3.591,1.829c-2.693,0.518-5.987-0.854-7.833-3.262
										c-1.458-1.901-1.709-4.077-0.708-6.128c0.818-1.675,1.61-2.239,2.645-2.239c0.775,0,1.686,0.315,2.841,0.718
										c1.975,0.684,4.432,1.538,7.63,1.107c2.503-0.336,4.573-0.921,6.154-1.739c2.21-1.143,4.354-0.234,5.497,1.175
										c0.568,0.699,1.01,1.684,1.01,2.761C343.775,207.941,343.496,208.856,342.782,209.73z"/>
								</g>
							</g>
						</g>
						<g>
							<g>
								<g>
									<path style="fill:#0067CD;" d="M381.603,177.595c-0.41,0.524-0.9,0.946-1.365,1.276c-2.552,1.806-6.534,2.267-8.875,1.029
										c-1.352-0.716-2.024-1.88-1.996-3.462c0.034-1.817-0.325-3.036-1.094-3.724c-0.587-0.524-1.329-0.674-2.102-0.674
										c-0.534,0-1.081,0.072-1.601,0.139c-1.916,0.249-2.932,0.302-3.272-1.346c-0.224-1.086-0.061-1.952,0.494-2.649
										c0.503-0.632,1.261-1.037,2.017-1.297c-0.517-0.152-1.046-0.296-1.582-0.433c-0.471,0.277-0.908,0.63-1.259,1.069
										c-0.754,0.944-0.991,2.132-0.703,3.524c0.553,2.685,2.708,2.404,4.443,2.18c1.147-0.15,2.231-0.292,2.862,0.275
										c0.52,0.465,0.769,1.447,0.742,2.917c-0.034,1.956,0.872,3.524,2.558,4.415c1.046,0.553,2.345,0.82,3.712,0.82
										c2.163,0,4.495-0.667,6.268-1.92c0.56-0.397,1.042-0.835,1.436-1.306C382.065,178.149,381.837,177.87,381.603,177.595z"/>
								</g>
							</g>
						</g>
						<g>
							<g>
								<g>
									<path style="fill:#0067CD;" d="M377.957,234.267c-0.017-0.562-0.245-4.593-2.943-6.659
										c-1.572-1.202-3.644-1.487-6.164-0.847c-7.93,2.017-9.688,0.946-12.457-4.379c-0.826-1.589-2.469-2.451-4.508-2.36
										c-2.85,0.127-5.645,1.973-6.642,4.394c-0.879,2.132-0.289,4.47,1.66,6.587c3.477,3.777,8.258,4.48,12.1,5.047
										c4.092,0.602,6.424,1.065,6.815,3.553c0.275,1.758,1.47,3.135,3.281,3.781c0.729,0.26,1.504,0.385,2.281,0.385
										c1.713,0,3.435-0.611,4.7-1.743C378.043,240.271,378.709,237.518,377.957,234.267z M375.377,241.24
										c-1.559,1.394-3.94,1.857-5.923,1.149c-0.843-0.302-2.298-1.084-2.592-2.951c-0.53-3.376-3.855-3.866-7.704-4.434
										c-3.87-0.568-8.254-1.215-11.479-4.717c-1.68-1.823-2.182-3.714-1.46-5.469c0.835-2.024,3.291-3.631,5.712-3.739
										c0.076-0.004,0.154-0.006,0.237-0.006c0.974,0,2.493,0.27,3.287,1.798c2.098,4.031,3.786,5.894,7.556,5.892
										c1.597,0,3.568-0.334,6.101-0.976c2.186-0.558,3.957-0.336,5.256,0.659c1.219,0.93,1.853,2.396,2.182,3.631
										c0.327,1.238,0.353,2.246,0.353,2.267c0,0.038,0.006,0.076,0.015,0.112C377.786,238.145,376.56,240.182,375.377,241.24z"/>
								</g>
							</g>
						</g>
						<g>
							<g>
								<g>
									<path style="fill:#0067CD;" d="M359.417,175.512c-1.608-1.054-3.416-1.048-5.23,0.021c-2.036,1.2-2.537,3.076-2.981,4.732
										c-0.63,2.353-1.128,4.212-5.549,4.212c-5.811,0-9.094,2.355-9.69,4.544c-0.382,1.411,0.272,2.731,1.793,3.621
										c0.57,0.336,1.118,0.475,1.644,0.475c1.343,0,2.558-0.91,3.743-1.8c1.453-1.09,2.957-2.216,4.795-1.853
										c0.452,0.089,0.951,0.133,1.481,0.133c4.06,0,10.049-2.579,11.988-7.185C362.481,179.877,361.642,176.974,359.417,175.512z
										 M360.44,182.004c-2.14,5.074-9.172,7.045-12.29,6.426c-2.303-0.456-4.075,0.87-5.636,2.043
										c-1.732,1.299-2.862,2.053-4.221,1.259c-1.094-0.64-1.557-1.504-1.306-2.434c0.507-1.872,3.648-3.764,8.67-3.764
										c5.233,0,5.913-2.539,6.57-4.996c0.429-1.601,0.835-3.114,2.497-4.096c0.746-0.437,1.47-0.657,2.169-0.657
										c0.674,0,1.322,0.203,1.943,0.611c1.272,0.835,1.982,2.256,1.982,3.75C360.818,180.766,360.696,181.398,360.44,182.004z"/>
								</g>
							</g>
						</g>
						<g>
							<g>
								<g>
									<path style="fill:#0067CD;" d="M338.103,232.391c-0.034-0.027-0.076-0.053-0.116-0.072
										c-0.097-0.044-2.372-1.16-0.813-5.245c0.539-1.411,0.27-2.841-0.758-4.029c-1.371-1.582-3.878-2.444-5.83-2.003
										c-1.329,0.3-2.254,1.162-2.605,2.427c-1.24,4.481-2.372,7.389-6.61,7.009c-1.242-0.112-2.339,0.458-3.086,1.601
										c-1.257,1.924-1.287,5.051-0.068,7.273c1.039,1.893,2.833,2.932,5.057,2.932h0.085c3.716-0.044,5.209-0.739,6.525-1.352
										c1.215-0.564,2.174-1.01,4.819-0.72c2.584,0.281,4.485-0.549,5.209-2.284C340.659,236.143,339.915,233.866,338.103,232.391
										z M338.937,237.524c-0.532,1.27-2.034,1.867-4.121,1.639c-2.934-0.323-4.121,0.23-5.378,0.813
										c-1.219,0.568-2.603,1.21-6.092,1.253h-0.074c-2.328,0-3.53-1.293-4.128-2.385c-1.029-1.874-1.018-4.59,0.025-6.185
										c0.346-0.53,0.951-1.137,1.901-1.137c0.066,0,0.135,0.002,0.205,0.008c5.436,0.488,6.65-3.906,7.721-7.778
										c0.31-1.12,1.162-1.532,1.821-1.682c1.574-0.355,3.684,0.376,4.8,1.665c0.539,0.623,1.075,1.641,0.57,2.962
										c-1.758,4.601,0.79,6.27,1.286,6.544C338.876,234.404,339.49,236.198,338.937,237.524z"/>
								</g>
							</g>
						</g>
						<g>
							<g>
								<g>
									<path style="fill:#0067CD;" d="M394.035,264.972c-0.184-2.148-0.955-4.288-2.231-6.188
										c-2.36-3.515-8.484-11.31-14.344-7.772c-2.305,1.392-2.053,3.807-1.834,5.936c0.182,1.745,0.353,3.391-0.653,4.567
										c-0.959,1.124-2.917,1.747-5.985,1.912c-5.066,0.27-8.332,1.614-9.707,3.997c-1.05,1.821-0.712,3.868-0.102,5.068
										c1.344,2.645,4.557,2.241,8.275,1.777c4.394-0.549,9.375-1.175,13.34,2.486c0.997,0.919,2.22,1.384,3.553,1.384
										c0.995,0,2.049-0.258,3.118-0.782c3.399-1.665,6.614-5.993,6.614-11.279C394.081,265.716,394.066,265.346,394.035,264.972z
										 M387.002,276.409c-2.085,1.02-4.088,0.864-5.49-0.431c-2.738-2.527-5.932-3.179-9.022-3.179
										c-1.794,0-3.551,0.22-5.165,0.422c-3.46,0.433-6.194,0.775-7.202-1.208c-0.395-0.775-0.824-2.505,0.074-4.06
										c1.168-2.024,4.229-3.224,8.849-3.471c3.371-0.18,5.573-0.925,6.73-2.279c1.299-1.521,1.096-3.473,0.9-5.361
										c-0.215-2.081-0.401-3.879,1.331-4.924c5.081-3.067,10.727,4.191,12.92,7.457c0.589,0.875,1.06,1.804,1.405,2.761
										c0.346,0.955,0.566,1.939,0.648,2.926C393.433,270.369,390.315,274.789,387.002,276.409z"/>
								</g>
							</g>
						</g>
						<g>
							<g>
								<g>
									<path style="fill:#0067CD;" d="M354.871,257.621c-1.487-2.78-5.209-4.464-8.3-3.752c-2.298,0.528-2.865,2.011-3.365,3.321
										c-0.691,1.815-1.289,3.38-6.743,2.615c-2.463-0.346-3.617,0.469-4.151,1.212c-0.801,1.115-0.735,2.801,0.18,4.626
										c1.849,3.686,6.802,7.461,13.706,7.592h0.074c1.046,0,2.068-0.412,2.812-1.139c0.731-0.712,1.139-1.654,1.147-2.653
										c0.004-0.72,0.473-2.015,2.67-4.088C355.482,262.921,356.2,260.103,354.871,257.621z M352.176,264.587
										c-2.009,1.897-2.991,3.481-3.002,4.848c-0.006,0.714-0.3,1.392-0.826,1.905c-0.549,0.532-1.305,0.839-2.07,0.839h-0.061
										c-6.426-0.12-11.131-3.718-12.78-7.009c-0.722-1.441-0.822-2.763-0.266-3.536c0.406-0.566,1.153-0.856,2.189-0.856
										c0.296,0,0.617,0.023,0.959,0.072c6.287,0.881,7.132-1.331,7.875-3.283c0.465-1.217,0.866-2.269,2.615-2.67
										c2.609-0.602,5.877,0.874,7.132,3.221C355.043,260.177,354.415,262.475,352.176,264.587z"/>
								</g>
							</g>
						</g>
						<g>
							<g>
								<g>
									<path style="fill:#0067CD;" d="M322.284,281.08c-0.659,2.246-1.886,3.828-3.65,4.702c-0.46,0.228-0.934,0.397-1.409,0.517
										c-0.006-0.37-0.015-0.731-0.027-1.088c0.33-0.097,0.657-0.22,0.974-0.378c1.485-0.739,2.526-2.102,3.099-4.052
										c1.384-4.724-1.842-10.67-4.276-14.257c0.013-0.632,0.023-1.236,0.032-1.815
										C319.563,268.168,323.978,275.291,322.284,281.08z"/>
								</g>
							</g>
						</g>
						<g>
							<g>
								<g>
									<path style="fill:#0067CD;" d="M406.999,295.512c-2.374-1.107-4.643-3.031-5.328-6.378
										c-0.427-2.087-0.125-3.914,0.902-5.435c0.592-0.879,1.375-1.582,2.197-2.136c-0.059-0.382-0.118-0.765-0.18-1.147
										c-1.058,0.653-2.106,1.53-2.89,2.687c-1.194,1.764-1.551,3.866-1.065,6.242c0.697,3.399,2.96,5.953,6.566,7.419
										C407.134,296.349,407.067,295.932,406.999,295.512z"/>
								</g>
							</g>
						</g>
						<g>
							<g>
								<path style="fill:#0067CD;" d="M369.461,221.318c-0.826,0-1.682-0.084-2.555-0.256c-4.669-0.918-5.392-5.079-6.307-10.348
									c-0.107-0.615-0.217-1.25-0.337-1.903c-0.829-4.507-2.947-6.219-4.816-7.73c-1.664-1.345-3.235-2.615-3.283-5.488
									c-0.029-1.705,0.522-3.043,1.635-3.977c2.618-2.196,7.41-1.297,7.613-1.257c0.113,0.022,0.216,0.08,0.293,0.167
									c0.567,0.634,13.909,15.601,15.965,20.729c0.969,2.418,0.565,5.048-1.081,7.035
									C374.96,220.256,372.398,221.318,369.461,221.318z M358.892,191.206c-1.442,0-3.24,0.235-4.417,1.223
									c-0.868,0.729-1.279,1.759-1.256,3.148c0.04,2.379,1.298,3.396,2.891,4.684c1.911,1.545,4.29,3.469,5.191,8.36
									c0.121,0.656,0.232,1.295,0.339,1.913c0.912,5.248,1.514,8.714,5.47,9.492c3.59,0.706,6.83-0.195,8.664-2.408
									c1.395-1.685,1.737-3.916,0.915-5.968c-1.886-4.705-14.275-18.733-15.65-20.281
									C360.697,191.315,359.877,191.206,358.892,191.206z"/>
							</g>
						</g>
						<g>
							<g>
								<path style="fill:#0067CD;" d="M359.019,196.442c0,0,31.462,40.323,37.401,55.998l3.967-6.295
									C400.386,246.145,376.705,207.996,359.019,196.442z"/>
							</g>
						</g>
						<g>
							<g>
								<g>
									<path style="fill:#0067CD;" d="M398.945,310.656c-0.385,0-0.709-0.298-0.737-0.687
										c-2.208-31.365-8.364-57.865-13.139-74.573c-5.175-18.108-9.889-28.936-9.936-29.043c-0.164-0.374,0.006-0.81,0.38-0.974
										c0.374-0.164,0.81,0.006,0.974,0.38c0.047,0.108,4.793,11.004,9.995,29.199c4.798,16.782,10.983,43.401,13.201,74.908
										c0.029,0.407-0.278,0.761-0.686,0.79C398.98,310.655,398.962,310.656,398.945,310.656z"/>
								</g>
							</g>
						</g>
						<g>
							<g>
								<g>
									<g>
										<g>
											<g>
												<g>
													<g>
														<g>
															<path style="fill:#0067CD;" d="M382.312,301.459c1.031-0.081,2.068-0.195,3.114-0.342
																c0.483-0.068,0.82-0.515,0.752-0.998c-0.068-0.484-0.512-0.827-0.999-0.752
																c-17.072,2.404-32.301-4.609-42.071-10.919c-10.64-6.873-17.302-14.425-17.368-14.501
																c-0.321-0.367-0.88-0.404-1.247-0.083c-0.367,0.321-0.405,0.879-0.083,1.247c0.067,0.077,6.862,7.788,17.697,14.794
																C351.544,296.007,365.961,302.75,382.312,301.459z"/>
														</g>
													</g>
												</g>
											</g>
										</g>
									</g>
								</g>
							</g>
						</g>
						<g>
							<g>
								<g>
									<g>
										<g>
											<g>
												<g>
													<g>
														<g>
															<path style="fill:#0067CD;" d="M360.311,285.4c1.883,0.289,3.812,0.48,5.781,0.552
																c0.488,0.018,0.898-0.363,0.916-0.851c0.018-0.487-0.362-0.901-0.851-0.915c-24.8-0.912-43.109-21.15-43.291-21.354
																c-0.325-0.365-0.883-0.397-1.247-0.072c-0.365,0.324-0.397,0.883-0.073,1.247
																C321.718,264.201,337.742,281.932,360.311,285.4z"/>
														</g>
													</g>
												</g>
											</g>
										</g>
									</g>
								</g>
							</g>
						</g>
						<g>
							<g>
								<g>
									<path style="fill:#FDB086;" d="M384.177,179.878l0.269,0.284l0.22,0.236l0.411,0.447l0.782,0.866
										c0.512,0.572,1.01,1.138,1.501,1.705c0.982,1.133,1.942,2.264,2.882,3.403c1.884,2.276,3.71,4.575,5.49,6.908
										c1.779,2.333,3.512,4.698,5.201,7.098c1.69,2.398,3.335,4.832,4.927,7.31c0.805,1.23,1.578,2.489,2.359,3.738
										c0.766,1.264,1.537,2.521,2.277,3.805c0.755,1.271,1.474,2.572,2.202,3.863l1.063,1.961l0.53,0.982l0.515,0.994
										l1.025,1.989l0.992,2.015c0.334,0.668,0.653,1.348,0.969,2.03c0.316,0.682,0.639,1.358,0.948,2.045
										c0.605,1.384,1.229,2.75,1.796,4.16c0.286,0.702,0.584,1.396,0.859,2.105l0.819,2.131l0.204,0.533l0.144,0.38
										c0.081,0.22,0.16,0.441,0.237,0.662c0.296,0.888,0.531,1.789,0.702,2.684c0.166,0.892,0.273,1.777,0.323,2.635
										c0.046,0.853,0.046,1.689-0.002,2.482c-0.094,1.587-0.346,3.04-0.676,4.346c-0.331,1.31-0.736,2.496-1.177,3.578
										c-0.884,2.171-1.893,3.974-2.928,5.606c-1.038,1.628-2.111,3.077-3.199,4.429c-2.178,2.695-4.418,5.014-6.691,7.18
										c-2.274,2.159-4.584,4.15-6.926,6.042c-4.687,3.777-9.49,7.172-14.473,10.343c-2.497,1.583-5.034,3.105-7.688,4.569
										c-1.33,0.732-2.686,1.449-4.12,2.154c-0.718,0.353-1.455,0.702-2.236,1.052c-0.782,0.349-1.603,0.698-2.546,1.054
										c-5.48,2.07-11.602-0.694-13.672-6.175c-1.96-5.189,0.414-10.953,5.324-13.308l0.448-0.212
										c0.332-0.158,0.765-0.374,1.223-0.619c0.459-0.244,0.948-0.517,1.447-0.805c0.999-0.576,2.036-1.214,3.075-1.878
										c2.082-1.333,4.176-2.781,6.232-4.282c4.113-3.01,8.105-6.251,11.771-9.629c1.832-1.689,3.579-3.416,5.184-5.156
										c1.6-1.737,3.063-3.5,4.228-5.173c0.581-0.833,1.085-1.642,1.47-2.367c0.386-0.721,0.651-1.368,0.751-1.765
										c0.116-0.4,0.025-0.524-0.047-0.089c-0.014,0.105-0.03,0.254-0.026,0.42c0.001,0.173,0.013,0.376,0.048,0.593
										c0.032,0.222,0.083,0.46,0.157,0.697c0.016,0.061,0.035,0.12,0.056,0.179l0.016,0.044c0.006,0.015-0.003-0.005-0.006-0.011
										l-0.012-0.026l-0.048-0.105l-0.192-0.419l-0.767-1.676c-0.257-0.558-0.539-1.112-0.806-1.669
										c-0.527-1.114-1.12-2.214-1.683-3.319c-0.29-0.551-0.596-1.098-0.892-1.646c-0.297-0.549-0.595-1.097-0.912-1.64
										l-0.933-1.633l-0.968-1.622l-0.485-0.81l-0.502-0.804l-1.004-1.608c-0.692-1.063-1.369-2.132-2.087-3.184
										c-0.7-1.059-1.435-2.103-2.159-3.15c-0.744-1.038-1.475-2.082-2.242-3.108c-1.512-2.062-3.077-4.095-4.684-6.099
										c-1.605-2.004-3.249-3.981-4.929-5.923c-1.68-1.942-3.398-3.849-5.141-5.707c-0.87-0.931-1.749-1.844-2.626-2.738
										c-0.438-0.447-0.877-0.887-1.31-1.314l-0.641-0.627l-0.306-0.294l-0.141-0.133l-0.066-0.062
										c-0.014-0.014-0.017-0.016-0.019-0.016l-0.008-0.005c-6.854-4.615-8.669-13.911-4.054-20.765
										c4.615-6.854,13.911-8.669,20.765-4.054c0.902,0.607,1.716,1.295,2.44,2.048L384.177,179.878z"/>
								</g>
							</g>
						</g>
						<g>
							<g>
								<g>
									<path style="fill:#FF7E59;" d="M398.75,250.124c-0.309,0-0.598-0.196-0.701-0.506c-0.129-0.387,0.08-0.806,0.468-0.935
										c0.265-0.088,6.577-2.155,13.631-1.3c0.405,0.049,0.694,0.417,0.645,0.823c-0.049,0.405-0.417,0.695-0.823,0.645
										c-6.728-0.816-12.924,1.214-12.986,1.235C398.906,250.111,398.827,250.124,398.75,250.124z"/>
								</g>
							</g>
							<g>
								<g>
									<path style="fill:#FF7E59;" d="M399.571,249.691c-0.164,0-0.329-0.054-0.466-0.166c-0.317-0.258-0.365-0.724-0.107-1.04
										c3.215-3.95,6.131-4.605,6.254-4.631c0.399-0.084,0.792,0.171,0.876,0.57c0.084,0.398-0.169,0.789-0.566,0.876
										c-0.051,0.012-2.578,0.63-5.417,4.118C399.998,249.598,399.785,249.691,399.571,249.691z"/>
								</g>
							</g>
						</g>
						<g>
							<g>
								<g>
									<g>
										<g>
											<g>
												<g>
													<g>
														<path style="fill:#0067CD;" d="M323.649,178.808c2.186,2.515,5.543,3.584,9.987,3.186
															c0.264-0.024,0.532-0.052,0.804-0.085c13.801-1.73,20.487-12.008,22.777-16.499c-0.603-0.101-1.219-0.192-1.843-0.274
															c-2.355,4.408-8.65,13.454-21.153,15.018c-4.225,0.53-7.329-0.31-9.234-2.503c-2.28-2.626-2.535-6.755-2.291-9.971
															c-0.598,0.253-1.211,0.539-1.83,0.856C320.732,171.91,321.205,175.993,323.649,178.808z"/>
													</g>
												</g>
											</g>
										</g>
									</g>
								</g>
							</g>
						</g>
						<g>
							<g>
								<g>
									<g>
										<g>
											<g>
												<g>
													<g>
														<g>
															<path style="fill:#0067CD;" d="M357.221,252.357c0.357-0.032,0.673-0.281,0.773-0.647
																c0.129-0.471-0.148-0.957-0.619-1.086c-16.187-4.439-35.496-0.988-35.69-0.953c-0.48,0.088-0.797,0.548-0.71,1.028
																c0.088,0.48,0.543,0.8,1.028,0.71c0.189-0.035,19.113-3.411,34.904,0.919
																C357.014,252.357,357.119,252.366,357.221,252.357z"/>
														</g>
													</g>
												</g>
											</g>
										</g>
									</g>
								</g>
							</g>
						</g>
					</g>
					<g>
						<g>
							<g>
								<g>
									<g>
										<g>
											<g>
												<g>
													<g>
														<path style="fill:#FFFFFF;" d="M350.777,164.01c-0.289-0.004-0.545,0.18-0.635,0.454
															c-3.501,10.741-11.432,30.906-21.883,31.934c-0.012,0.002-0.024,0.003-0.036,0.004
															c-1.563,0.14-2.752-0.644-3.638-2.394c-3.229-6.384-0.648-21.913,4.584-28.417c0.202-0.251,0.238-0.611,0.047-0.868
															c-0.283-0.382-0.826-0.376-1.108-0.028c-5.608,6.944-8.247,23.048-4.762,29.94c1.139,2.254,2.868,3.342,5.001,3.151
															c0.016-0.001,0.032-0.003,0.048-0.005c11.217-1.103,19.375-21.677,23.012-32.908c0.137-0.421-0.173-0.856-0.616-0.862
															C350.787,164.01,350.782,164.01,350.777,164.01z"/>
													</g>
												</g>
											</g>
										</g>
									</g>
								</g>
							</g>
						</g>
					</g>
				</g>
			</g>
			<g>
				<g>
					<g>
						<g>
							<g>
								<g>
									<g>
										<g>
											<g>
												<g>
													<g>
														<path style="fill:#1E1C18;" d="M297.185,118.001c4.225,4.913,11.569,11.323,20.203,16.978
															c0.106,0.069,0.212,0.138,0.319,0.206c15.882,10.33,36.026,18.023,49.192,9.221
															c28.685-19.182,6.693-45.554,6.693-45.554s2.905,25.093-16.996,19.253c-18.577-5.453-27.937-37.253-48.57-29.112
															c-13.661,5.389-13.983,16.357-12.645,23.153c0.035,0.18,0.073,0.355,0.11,0.53
															C296.18,115.859,297.185,118.001,297.185,118.001z"/>
													</g>
												</g>
											</g>
										</g>
									</g>
								</g>
							</g>
						</g>
					</g>
				</g>
				<g>
					<g>
						<g>
							<g>
								<path style="fill:#FF9B00;" d="M309.093,106.156c-0.284-0.065-0.503-0.291-0.56-0.577
									c-0.235-1.184-2.206-11.658,1.051-14.565c0.619-0.553,1.722-1.096,3.459-0.54c1.125,0.36,1.895,1.103,2.226,2.15
									c1.322,4.175-4.727,12.341-5.421,13.258c-0.087,0.115-0.204,0.2-0.334,0.248
									C309.383,106.178,309.236,106.189,309.093,106.156z M310.569,92.118c-1.883,1.68-1.426,7.785-0.881,11.444
									c2.006-2.948,4.949-8.039,4.172-10.491c-0.188-0.594-0.591-0.971-1.267-1.188c-0.609-0.195-1.115-0.216-1.532-0.062
									C310.881,91.887,310.717,91.986,310.569,92.118z"/>
							</g>
						</g>
					</g>
				</g>
				<g>
					<g>
						<g>
							<g>
								<path style="fill:#FF9B00;" d="M309.143,106.964c-1.124-0.245-11.031-2.507-12.745-6.537
									c-0.43-1.01-0.329-2.076,0.291-3.082c0.957-1.551,2.146-1.856,2.978-1.841c4.365,0.087,9.685,9.322,10.277,10.374
									c0.143,0.254,0.124,0.568-0.05,0.802c-0.088,0.119-0.206,0.205-0.339,0.254
									C309.427,106.983,309.284,106.994,309.143,106.964z M297.949,98.122c-0.373,0.604-0.433,1.153-0.189,1.726
									c1.006,2.367,6.553,4.317,9.995,5.25c-1.968-3.133-5.594-8.064-8.118-8.114c-0.197-0.004-0.384,0.027-0.563,0.093
									C298.657,97.23,298.285,97.576,297.949,98.122z"/>
							</g>
						</g>
					</g>
				</g>
				<g>
					<g>
						<g>
							<path style="fill:#FF9B00;" d="M297.185,118.001c4.225,4.913,11.569,11.323,20.203,16.978
								c0.106,0.069,0.212,0.138,0.319,0.206c10.68,2.856,24.288,0.34,24.333-5.897c0.085-11.954-13.15-26.814-25.104-25.959
								c-8.95,0.64-18.897,6.083-21.446,9.347C296.18,115.859,297.185,118.001,297.185,118.001z"/>
						</g>
					</g>
				</g>
				<g>
					<g>
						<g>
							<g>
								<g>
									<g>
										<g>
											<g>
												<g>
													<g>
														<g>
															<g>
																<path style="fill:#1E1C18;" d="M331.791,158.414c0,0,12.331-7.566,10.966-22.401
																	c-1.3-14.125-6.568-19.7-12.907-25.182c-4.773-4.129-16.309-7.769-27.775-0.515
																	c-11.577,7.325-18.5,17.338-15.954,28.182C290.887,158.79,315.437,176.4,331.791,158.414z"/>
															</g>
														</g>
													</g>
												</g>
											</g>
										</g>
									</g>
								</g>
							</g>
						</g>
					</g>
				</g>
				<g>
					<g>
						<g>
							<g>
								<g>
									<g>
										<g>
											<g>
												<g>
													<g>
														<g>
															<g>
																<g>
																	<g>
																		<g>
																			<g>
																				<path style="fill:#FF7E59;" d="M300.832,154.613c0,0-5.625-1.767-5.039,3.188
																					c0.587,4.954,6.857,11.766,10.959,7.408L300.832,154.613z"/>
																			</g>
																		</g>
																	</g>
																</g>
															</g>
														</g>
													</g>
												</g>
											</g>
										</g>
									</g>
								</g>
							</g>
						</g>
					</g>
					<g>
						<g>
							<g>
								<g>
									<g>
										<g>
											<g>
												<g>
													<g>
														<g>
															<g>
																<g>
																	<g>
																		<g>
																			<g>
																				<g>
																					<path style="fill:#FFA600;" d="M308.218,161.309c2.416-0.107,5.044,1.067,6.427,3.253
																						c2.054,3.246,1.084,7.559-2.162,9.612c-3.246,2.054-7.559,1.084-9.612-2.162
																						c-1.538-2.431-1.38-5.461,0.16-7.69c0.515-0.748,1.187-1.407,2.003-1.923c0.02-0.013,0.04-0.023,0.06-0.036
																						c0.293,0.396,0.377,0.773,0.23,1.145c-0.64,0.459-1.161,1.027-1.557,1.664c-1.155,1.858-1.227,4.29,0.02,6.26
																						c1.734,2.742,5.376,3.562,8.119,1.826c2.742-1.735,3.561-5.378,1.827-8.119
																						c-1.261-1.994-3.442-2.918-5.642-2.635L308.218,161.309z"/>
																				</g>
																			</g>
																		</g>
																	</g>
																</g>
															</g>
														</g>
													</g>
												</g>
											</g>
										</g>
									</g>
								</g>
							</g>
						</g>
					</g>
					<g>
						<g>
							<g>
								<g>
									<g>
										<g>
											<g>
												<g>
													<g>
														<g>
															<g>
																<g>
																	<g>
																		<g>
																			<g>
																				<g>
																					<path style="fill:#FDB086;" d="M321.313,168.988l5.162,8.955c0,0,13.955,5.661,23.668-13.479
																						c-4.342-4.175-11.026-8.924-12.308-13.745c0,0-0.942,1.199-2.172,3.617c-0.241,0.473-0.612,0.911-0.954,1.403
																						C331.679,160.08,326.791,166.089,321.313,168.988z"/>
																				</g>
																			</g>
																		</g>
																	</g>
																</g>
															</g>
														</g>
													</g>
												</g>
											</g>
										</g>
									</g>
								</g>
							</g>
						</g>
						<g>
							<g>
								<g>
									<g>
										<g>
											<path style="fill:#1E1C18;" d="M321.313,168.988l2.904,5.038c3.855-3.838,10.376-11.391,11.446-19.691
												c-0.294,0.442-0.612,0.911-0.954,1.403C331.679,160.08,326.791,166.089,321.313,168.988z"/>
										</g>
									</g>
								</g>
							</g>
						</g>
					</g>
					<g>
						<g>
							<g>
								<g>
									<g>
										<g>
											<g>
												<g>
													<g>
														<g>
															<g>
																<g>
																	<g>
																		<g>
																			<g>
																				<path style="fill:#FDB086;" d="M297.603,156.639c0.69,1.084,1.346,2.103,1.972,3.057
																					c4.703,7.176,7.717,10.834,10.601,11.536c14.578,3.539,27.253-19.717,27.66-20.466
																					c0.003-0.013,0.009-0.021,0.009-0.021c-0.335-0.93-0.686-1.843-1.046-2.735
																					c-3.044-7.568-6.952-13.916-11.426-19.464c-3.663-6.518-11.139-10.019-18.443-8.428
																					c-7.57,1.654-11.375,7.848-14.043,10.966c-4.027,4.708-3.082,13.165,2.718,22.398
																					C296.302,154.588,296.968,155.642,297.603,156.639z"/>
																			</g>
																		</g>
																	</g>
																</g>
															</g>
														</g>
													</g>
												</g>
											</g>
										</g>
									</g>
								</g>
							</g>
						</g>
					</g>
					<g>
						<g>
							<g>
								<g>
									<g>
										<g>
											<g>
												<g>
													<g>
														<g>
															<g>
																<g>
																	<g>
																		<g>
																			<g>
																				<path style="fill:#1E1C18;" d="M304.41,136.177c0,0-1.714,1.338-0.012,2.608
																					c1.703,1.27,4.203-2.899,8.782-1.471C313.181,137.314,311.753,132.586,304.41,136.177z"/>
																			</g>
																		</g>
																	</g>
																</g>
															</g>
														</g>
													</g>
												</g>
											</g>
										</g>
									</g>
								</g>
							</g>
						</g>
					</g>
					<g>
						<g>
							<g>
								<g>
									<g>
										<g>
											<g>
												<g>
													<g>
														<g>
															<g>
																<g>
																	<g>
																		<g>
																			<g>
																				<g>
																					<path style="fill:#FF7E59;" d="M313.269,148.879c0.54,0.853,2.735,0.433,4.902-0.939
																						c2.168-1.371,3.487-3.175,2.947-4.028c-0.54-0.853-2.735-0.433-4.902,0.938
																						C314.049,146.223,312.729,148.026,313.269,148.879z"/>
																				</g>
																			</g>
																		</g>
																	</g>
																</g>
															</g>
														</g>
													</g>
												</g>
											</g>
										</g>
									</g>
								</g>
							</g>
						</g>
					</g>
					<g style="opacity:0.8;">
						<g>
							<g>
								<g>
									<g>
										<g>
											<g>
												<g>
													<g>
														<g>
															<g>
																<g>
																	<g>
																		<g>
																			<g>
																				<g>
																					<path style="fill:#FF7E59;" d="M297.603,156.639c0.69,1.084,1.346,2.103,1.972,3.057
																						c1.945-1.332,3.079-2.977,2.571-3.779C301.636,155.109,299.648,155.441,297.603,156.639z"/>
																				</g>
																			</g>
																		</g>
																	</g>
																</g>
															</g>
														</g>
													</g>
												</g>
											</g>
										</g>
									</g>
								</g>
							</g>
						</g>
					</g>
					<g>
						<g>
							<g>
								<g>
									<g>
										<g>
											<path style="fill:#1E1C18;" d="M309.12,144.34c0.741,1.172,1.874,1.786,2.529,1.371c0.656-0.415,0.586-1.701-0.155-2.873
												c-0.741-1.172-1.874-1.785-2.529-1.37C308.309,141.882,308.378,143.168,309.12,144.34z"/>
										</g>
									</g>
								</g>
							</g>
						</g>
						<g>
							<g>
								<g>
									<g>
										<g>
											<path style="fill:#1E1C18;" d="M297.526,151.675c0.741,1.172,1.874,1.786,2.529,1.371
												c0.655-0.415,0.586-1.701-0.155-2.873c-0.741-1.171-1.874-1.785-2.529-1.37
												C296.716,149.217,296.785,150.503,297.526,151.675z"/>
										</g>
									</g>
								</g>
							</g>
						</g>
						<g>
							<g>
								<g>
									<g>
										<g>
											<g>
												<g>
													<g>
														<g>
															<g>
																<g>
																	<g>
																		<g>
																			<g>
																				<g>
																					<path style="fill:#1E1C18;" d="M310.711,159.577c-1.352,0.856-3.056,1.323-5.15,0.876
																						c-0.308-0.066-0.505-0.369-0.439-0.677c0.066-0.308,0.369-0.505,0.677-0.439
																						c5.705,1.215,8.009-5.54,8.104-5.828c0.099-0.299,0.422-0.462,0.721-0.363c0.299,0.098,0.462,0.42,0.364,0.719
																						C314.969,153.921,313.69,157.692,310.711,159.577z"/>
																				</g>
																			</g>
																		</g>
																	</g>
																</g>
															</g>
														</g>
													</g>
												</g>
											</g>
										</g>
									</g>
								</g>
							</g>
						</g>
						<g>
							<g>
								<g>
									<g>
										<g>
											<g>
												<g>
													<g>
														<g>
															<g>
																<g>
																	<g>
																		<g>
																			<g>
																				<g>
																					<path style="fill:#1E1C18;" d="M306.039,153.136c-0.562,0.355-1.001,0.501-1.038,0.514
																						c-0.152,0.049-0.317,0.032-0.456-0.046c-0.139-0.079-0.239-0.212-0.275-0.368l-1.45-6.239
																						c-0.071-0.307,0.12-0.613,0.427-0.685c0.307-0.072,0.613,0.119,0.685,0.427l1.29,5.555
																						c0.499-0.283,1.217-0.808,1.706-1.674c0.155-0.275,0.503-0.372,0.777-0.217
																						c0.275,0.155,0.372,0.503,0.217,0.777C307.385,152.133,306.642,152.755,306.039,153.136z"/>
																				</g>
																			</g>
																		</g>
																	</g>
																</g>
															</g>
														</g>
													</g>
												</g>
											</g>
										</g>
									</g>
								</g>
							</g>
						</g>
					</g>
					<g>
						<g>
							<g>
								<g>
									<g>
										<g>
											<g>
												<g>
													<g>
														<g>
															<g>
																<g>
																	<g>
																		<g>
																			<g>
																				<path style="fill:#1E1C18;" d="M331.015,148.424c0.139,0.096,3.941,2.694,6.82,2.342
																					c0.002-0.001,0.003,0.001,0.005,0c0.003-0.013,0.004-0.019,0.004-0.019c-0.335-0.93-0.685-1.843-1.045-2.736
																					C336.708,148.049,334.224,149.075,331.015,148.424z"/>
																			</g>
																		</g>
																	</g>
																</g>
															</g>
														</g>
													</g>
												</g>
											</g>
										</g>
									</g>
								</g>
							</g>
						</g>
					</g>
					<g>
						<g>
							<g>
								<g>
									<g>
										<g>
											<g>
												<g>
													<g>
														<g>
															<g>
																<g>
																	<g>
																		<g>
																			<g>
																				<path style="fill:#FDB086;" d="M328.013,138.928c0,0,0.703-9.258,7.265-6.484
																					c5.407,2.286,6.779,16.29-1.122,16.193L328.013,138.928z"/>
																			</g>
																		</g>
																	</g>
																</g>
															</g>
														</g>
													</g>
												</g>
											</g>
										</g>
									</g>
								</g>
							</g>
						</g>
					</g>
					<g>
						<g>
							<g>
								<g>
									<g>
										<g>
											<g>
												<g>
													<g>
														<g>
															<g>
																<g>
																	<g>
																		<g>
																			<g>
																				<g>
																					<path style="fill:#FFA600;" d="M339.689,142.227c2.416-0.108,5.044,1.067,6.427,3.252
																						c2.054,3.247,1.084,7.559-2.163,9.613c-3.247,2.054-7.559,1.084-9.613-2.163c-1.538-2.431-1.38-5.46,0.16-7.69
																						c0.515-0.748,1.187-1.407,2.003-1.923c0.02-0.013,0.039-0.022,0.06-0.035c0.293,0.396,0.377,0.773,0.23,1.145
																						c-0.64,0.459-1.161,1.026-1.557,1.664c-1.155,1.858-1.227,4.29,0.019,6.26c1.735,2.742,5.376,3.563,8.12,1.827
																						c2.742-1.735,3.561-5.378,1.826-8.12c-1.262-1.993-3.442-2.918-5.642-2.635L339.689,142.227z"/>
																				</g>
																			</g>
																		</g>
																	</g>
																</g>
															</g>
														</g>
													</g>
												</g>
											</g>
										</g>
									</g>
								</g>
							</g>
						</g>
					</g>
					<g>
						<g>
							<g>
								<g>
									<g>
										<g>
											<g>
												<g>
													<g>
														<g>
															<g>
																<g>
																	<g>
																		<g>
																			<g>
																				<path style="fill:#1E1C18;" d="M333.597,146.337c-0.017,0.011-0.036,0.021-0.055,0.031
																					c-0.283,0.138-0.625,0.021-0.763-0.262c-2.801-5.723,0.531-10.426,0.673-10.624
																					c0.185-0.255,0.542-0.312,0.797-0.127c0.255,0.185,0.312,0.541,0.128,0.796l0,0
																					c-0.126,0.176-3.066,4.361-0.573,9.453C333.933,145.868,333.84,146.183,333.597,146.337z"/>
																			</g>
																		</g>
																	</g>
																</g>
															</g>
														</g>
													</g>
												</g>
											</g>
										</g>
									</g>
								</g>
							</g>
						</g>
					</g>
					<g>
						<g>
							<g>
								<g>
									<g>
										<g>
											<g>
												<g>
													<g>
														<g>
															<g>
																<g>
																	<g>
																		<g>
																			<g>
																				<path style="fill:#1E1C18;" d="M336.247,140.568c-0.107,0.068-0.236,0.1-0.372,0.084
																					c-0.634-0.074-2.435-0.105-3.13,0.633c-0.217,0.229-0.577,0.24-0.807,0.023
																					c-0.229-0.216-0.24-0.577-0.024-0.806c1.215-1.288,3.804-1.019,4.095-0.984
																					c0.313,0.037,0.536,0.321,0.499,0.634C336.488,140.331,336.387,140.479,336.247,140.568z"/>
																			</g>
																		</g>
																	</g>
																</g>
															</g>
														</g>
													</g>
												</g>
											</g>
										</g>
									</g>
								</g>
							</g>
						</g>
					</g>
				</g>
				<g>
					<g>
						<g>
							<g>
								<g>
									<g>
										<g>
											<g>
												<g>
													<g>
														<g>
															<g>
																<g>
																	<g>
																		<g>
																			<path style="fill:#1E1C18;" d="M322.368,121.67c0,0-2.713,9.908-6.327,10.17
																				c-3.615,0.262-2.608-7.801-2.608-7.801s-6.246,11.16-10.944,11.811c-4.698,0.651-0.958-7.926-0.958-7.926
																				s-3.17,11.042-7.542,13.273c-4.372,2.231-3.536-5.589-3.536-5.589s0.844,9.693-2.045,10.641
																				c-2.889,0.949-6.176-11.651-0.173-20.444C294.236,117.011,315.666,104.352,322.368,121.67z"/>
																		</g>
																	</g>
																</g>
															</g>
														</g>
													</g>
												</g>
											</g>
										</g>
									</g>
								</g>
							</g>
						</g>
					</g>
				</g>
				<g>
					<g>
						<g>
							<g>
								<g>
									<g>
										<g>
											<g>
												<g>
													<g>
														<g>
															<g>
																<g>
																	<path style="fill:#1E1C18;" d="M318.171,127.436c0,0,6.355,14.715,9.765,12.643
																		c3.409-2.072,3.508-9.429-5.568-18.409L318.171,127.436z"/>
																</g>
															</g>
														</g>
													</g>
												</g>
											</g>
										</g>
									</g>
								</g>
							</g>
						</g>
					</g>
				</g>
				<g>
					<g>
						<g>
							<g>
								<g>
									<path style="fill:#1E1C18;" d="M296.123,141.421c0,0,1.943-0.976,2.361,1.107c0.418,2.082-4.419,2.557-5.091,7.306
										C293.393,149.833,289.733,146.518,296.123,141.421z"/>
								</g>
							</g>
						</g>
					</g>
				</g>
			</g>
			<g>
				<path style="fill:#FF693B;" d="M407.256,400.652c-10.502-3.746-17.179-5.857-34.154-5.857c0,0,43.104-43.004,34.946-92.806
					c-0.222-1.358-9.142-3.252-13.321-3.83c-2.974-0.411-5.809-0.74-8.483-1.002c-5.165-0.506-10.361,0.241-15.227,2.045
					c-0.27,0.1-0.54,0.197-0.811,0.292c-1.032,0.45-2.078,0.868-3.14,1.241c-1.577,0.554-3.155,0.992-4.808,1.237
					c-1.471,0.218-2.942,0.374-4.341,0.868c-9.669,25.296-42.147,116.456-9.89,120.952c31.527,4.394,78.337,3.197,78.337,3.197
					l4.316-20.282C430.68,406.707,421.471,405.722,407.256,400.652z"/>
			</g>
			<g>
				<path style="fill:#CC3A12;" d="M419.262,427.055c-0.037,0-0.074-0.003-0.112-0.01c-0.345-0.061-0.574-0.39-0.513-0.735
					l3.658-20.573c0.062-0.345,0.392-0.574,0.735-0.513c0.345,0.061,0.574,0.39,0.513,0.735l-3.658,20.573
					C419.831,426.839,419.563,427.055,419.262,427.055z"/>
			</g>
			<g>
				<g>
					<path style="fill:#CC3A12;" d="M421.723,408.4c-0.025,0-0.051-0.001-0.077-0.004c-2.476-0.298-6.058-1.309-10.593-2.589
						c-6.035-1.703-13.546-3.823-21.329-5.012c-13.304-2.032-27.612-1.458-27.754-1.452c-0.254,0.013-0.493-0.133-0.601-0.365
						c-0.108-0.232-0.067-0.506,0.106-0.695c27.775-30.493,37.049-55.53,39.939-71.163c3.126-16.914-0.345-26.759-0.38-26.856
						c-0.119-0.329,0.05-0.692,0.379-0.812c0.329-0.12,0.692,0.049,0.812,0.378c0.149,0.408,3.616,10.189,0.456,27.409
						c-1.849,10.076-5.607,20.611-11.169,31.311c-6.754,12.993-16.205,26.271-28.101,39.484c4.038-0.088,15.6-0.157,26.505,1.509
						c7.86,1.201,15.413,3.332,21.482,5.045c4.305,1.215,8.022,2.264,10.4,2.55c0.348,0.042,0.595,0.358,0.553,0.705
						C422.313,408.164,422.039,408.4,421.723,408.4z"/>
				</g>
			</g>
		</g>
		<g>
			<g>
				<g>
					<g>
						<path style="fill:#352422;" d="M292.917,261.197c0,0-14.845-2.053-16.134-9.691c-1.289-7.639,32.499,1.142,37.262-14.116
							c4.763-15.259-9.576-28.581-14.777-24.361c-6.164,5.001,6.439,8.101,6.615,16.118c0.146,6.659-4.349,12.501-17.144,12.598
							c-12.795,0.097-18.616,1.714-18.939,7.639c-0.351,6.447,9.543,13.748,15.79,14.564
							C291.836,264.763,292.917,261.197,292.917,261.197z"/>
					</g>
				</g>
				<g>
					<g>
						<path style="fill:#FFFFFF;" d="M281.292,271.119c0.403,1.159,1.035,2.366,1.922,3.628
							c4.875,6.932,15.435,12.104,27.612,15.356c17.382,4.645,38.059,5.387,50.204,1.774c4.358-1.297,7.618-3.154,9.231-5.591
							c0.375-0.566,0.714-1.148,1.021-1.743c1.271-2.462,1.983-5.159,2.292-7.932c0.063-0.556,0.11-1.116,0.139-1.676
							c0.219-3.933-0.296-7.959-1.109-11.645c-0.037-0.173-0.076-0.345-0.115-0.516c-0.182-0.799-0.379-1.582-0.584-2.339
							c-0.398-1.466-0.829-2.851-1.26-4.12c-1.579-4.656-3.163-7.786-3.163-7.786s-0.176,6.926-23.449,2.947
							c-1.358-0.232-2.814-0.426-4.349-0.585c-1.471-0.151-3.019-0.267-4.619-0.35c-0.604-0.033-1.224-0.06-1.847-0.08
							c-20.761-0.701-49.435,4.236-52.245,15.752C280.603,267.733,280.682,269.368,281.292,271.119z"/>
					</g>
				</g>
				<g style="opacity:0.1;">
					<g>
						<path style="fill:#352422;" d="M337.769,266.053c0,0,1.921,1.438,2.969,3.322c1.047,1.884,7.631,5.745,14.182,4.366
							c5.566-1.172,14.52-5.721,17.684-10.454c-0.037-0.173-0.076-0.345-0.115-0.516c-0.182-0.799-0.379-1.582-0.584-2.339
							c-0.398-1.466-0.829-2.851-1.26-4.12c-1.642-0.397-3.314-0.201-3.314-0.201L337.769,266.053z"/>
					</g>
				</g>
				<g>
					<g>
						<g>
							<g>
								<g>
									<g>
										<g>
											<g>
												<g>
													<g>
														<g>
															<path style="fill:#FDB086;" d="M361.93,301.942c1.996-1.992,2.177-10.276-5.104-15.97
																c-6.744-5.274-7.501-8.41-12.919-11.581c-4.692-2.746-2.576,1.439-0.516,5.329c2.06,3.89,3.807,4.933-0.01,5.908
																c-3.818,0.975-20.227-1.792-24.223-0.025c-3.996,1.767,16.863,5.317,16.863,5.317s-18.021-0.071-19.05,2.217
																c-1.233,2.741,18.012,3.912,18.012,3.912s-15.311,2.13-15.289,3.318c0.041,2.304,15.624,2.582,15.624,2.582
																s-10.463,2.005-9.399,3.598C326.984,308.14,350.134,308.052,361.93,301.942z"/>
														</g>
													</g>
												</g>
											</g>
										</g>
									</g>
								</g>
							</g>
						</g>
					</g>
				</g>
				<g>
					<g>
						<g>
							<g>
								<path style="fill:#352422;" d="M359.168,243.315c0,0,4.796-5.473,12.242-8.846c1.083-0.491,2.277,0.43,2.08,1.602
									l-2.205,13.109C371.285,249.18,360.884,249.399,359.168,243.315z"/>
							</g>
						</g>
						<g>
							<g>
								<path style="fill:#3A4A59;" d="M368.854,247.418c0.775-2.954,1.121-6.09,2.035-9.572c0,0-8.071,4.138-8.698,6.66
									C362.191,244.506,366.274,248.029,368.854,247.418z"/>
							</g>
						</g>
					</g>
					<g>
						<g>
							<g>
								<path style="fill:#352422;" d="M346.285,241.984c0,0-5.843-4.051-13.744-5.561c-1.295-0.247-2.337,1.065-1.822,2.278
									l4.755,11.208C335.473,249.91,346.097,248.303,346.285,241.984z"/>
							</g>
						</g>
						<g>
							<g>
								<path style="fill:#3A4A59;" d="M337.883,248.314c-1.469-2.678-2.564-5.636-4.296-8.793c0,0,8.833,2.057,10.054,4.352
									C343.641,243.873,340.534,248.281,337.883,248.314z"/>
							</g>
						</g>
					</g>
					<g>
						<g>
							<path style="fill:#352422;" d="M340.071,266.155c0.843,0.51,2.097,0.559,2.097,0.559c1.373,3.153,6.314,5.139,10.527,4.506
								c6.574-0.991,7.391-4.864,7.391-4.864s1.928,0.494,2.93,0.285c3.031-0.632,9.554-2.879,10.308-10.989
								c0.337-3.626-1.426-6.702-3.353-8.923c-2.111-2.431-4.825-4.259-7.831-5.413c-15.981-6.137-28.753,6.483-29.392,14.794
								C332.29,262.092,337.607,264.668,340.071,266.155z"/>
						</g>
					</g>
					<g>
						<g>
							<path style="fill:#594B54;" d="M347.022,254.159c0.181-0.097,0.359,0.136,0.217,0.285c-0.777,0.814-2.178,1.862-3.952,1.369
								c-1.467-0.408-1.964-1.488-2.107-2.411c-0.032-0.205,0.25-0.3,0.341-0.113c0.34,0.697,1.041,1.43,2.484,1.615
								C345.095,255.044,346.252,254.572,347.022,254.159z"/>
						</g>
					</g>
					<g>
						<g>
							<path style="fill:#594B54;" d="M361.816,254.251c0.16-0.129,0.378,0.068,0.266,0.241c-0.614,0.943-1.799,2.231-3.633,2.072
								c-1.517-0.132-2.204-1.101-2.514-1.982c-0.069-0.196,0.19-0.341,0.314-0.174c0.462,0.622,1.286,1.215,2.738,1.131
								C360.085,255.475,361.136,254.799,361.816,254.251z"/>
						</g>
					</g>
					<g>
						<g>
							<path style="fill:#FFFFFF;" d="M340.071,266.155c0.843,0.51,2.097,0.559,2.097,0.559c1.373,3.153,6.314,5.139,10.527,4.506
								c6.574-0.991,7.391-4.864,7.391-4.864s1.928,0.494,2.93,0.285c0-0.002,0-0.002,0-0.002s-0.674-4.846-5.437-7.18
								c-4.764-2.335-5.285-8.339-5.042-13.928c0.007-0.15-0.21-0.179-0.242-0.032c-0.707,3.222-2.389,9.723-4.695,11.146
								C344.503,258.554,342.55,261.222,340.071,266.155C340.017,266.26,340.115,266.046,340.071,266.155z"/>
						</g>
					</g>
				</g>
				<g>
					<g>
						<path style="fill:#FFFFFF;" d="M363.206,330.757c0.161,0.16,0.339,0.29,0.535,0.385c0.371,0.186,0.806,0.248,1.317,0.171
							c0.197-0.03,0.404-0.08,0.625-0.155c0.215-0.071,0.444-0.166,0.685-0.283c0.373-0.182,0.715-0.41,1.025-0.679
							c0.254-0.215,0.485-0.459,0.698-0.727c3.146-3.918,2.565-13.087,3.233-20.422c0.297-3.261,0.609-7.346,0.905-11.509
							c0.694-9.759,1.288-19.943,1.344-20.927c0.003-0.052,0.005-0.078,0.005-0.078c-0.143-0.027-0.285-0.048-0.425-0.065
							c-6.851-0.84-11.088,8.401-12.124,15.409c-0.356,2.406-0.332,4.548,0.09,5.931c1.683,5.493,0.458,15.164,0.481,21.474
							C361.619,323.784,361.452,329.025,363.206,330.757z"/>
					</g>
				</g>
				<g style="opacity:0.1;">
					<g>
						<g>
							<g>
								<path style="fill:#352422;" d="M367.393,330.196c0.254-0.215,0.485-0.459,0.698-0.727c0.131-1.011,0.23-2.137,0.238-3.258
									c0.001-0.164-0.132-0.297-0.294-0.298c-0.162-0.001-0.297,0.13-0.298,0.294
									C367.729,327.612,367.572,329.024,367.393,330.196z"/>
							</g>
						</g>
					</g>
					<g>
						<g>
							<g>
								<path style="fill:#352422;" d="M365.058,331.313c0.197-0.03,0.404-0.08,0.625-0.155c0.215-1.287,0.429-2.958,0.439-4.617
									c0.001-0.162-0.131-0.295-0.294-0.296c-0.162-0.003-0.297,0.129-0.298,0.294
									C365.519,328.273,365.282,330.023,365.058,331.313z"/>
							</g>
						</g>
					</g>
					<g>
						<g>
							<g>
								<path style="fill:#352422;" d="M363.206,330.757c0.161,0.16,0.339,0.29,0.535,0.385c0.214-1.279,0.42-2.926,0.43-4.559
									c-0.001-0.164-0.132-0.297-0.294-0.298c-0.164-0.001-0.297,0.13-0.298,0.294
									C363.569,328.06,363.396,329.551,363.206,330.757z"/>
							</g>
						</g>
					</g>
				</g>
				<g>
					<g>
						<path style="fill:#352422;" d="M371.187,295.824c0.214,0.638,0.589,1.209,1.042,1.713c0.694-9.759,1.288-19.943,1.344-20.927
							c0.063-0.556,0.11-1.116,0.139-1.676c-0.178,0.467-0.369,0.983-0.559,1.534c-0.557,1.601-1.121,3.497-1.444,5.324
							c-0.149,0.85-0.295,1.779-0.428,2.751C370.718,288.666,370.411,293.502,371.187,295.824z"/>
					</g>
				</g>
				<g>
					<g>
						<path style="fill:#FFFFFF;" d="M329.73,300.459c1.666,3.817,8.181,4.076,13.773,4.775c4.804,0.602,11.691,4.653,14.558,3.557
							c0.208-0.08,0.397-0.186,0.56-0.327c0.206-0.171,0.375-0.392,0.5-0.668c0.071-0.157,0.136-0.313,0.191-0.47
							c0.071-0.198,0.133-0.396,0.182-0.594c0.148-0.603,0.189-1.202,0.133-1.784c-0.027-0.276-0.075-0.547-0.144-0.814
							c-0.553-2.128-2.437-3.924-5.2-4.675c-4.274-1.16-10.305-0.999-13.251-4.363c-2.946-3.362,0.517-13.01,0.517-13.01
							c-2.175-4.133-5.015-3.637-10.47-0.122C325.622,285.483,328.066,296.64,329.73,300.459z"/>
					</g>
				</g>
				<g style="opacity:0.1;">
					<g>
						<g>
							<g>
								<path style="fill:#352422;" d="M355.973,302.757c1.353,0.664,2.642,1.486,3.654,2.191c-0.027-0.276-0.075-0.547-0.144-0.814
									c-0.947-0.637-2.076-1.331-3.249-1.908c-0.147-0.072-0.323-0.01-0.395,0.134
									C355.767,302.507,355.828,302.685,355.973,302.757z"/>
							</g>
						</g>
					</g>
					<g>
						<g>
							<g>
								<path style="fill:#352422;" d="M355.312,304.888c1.511,0.743,2.946,1.684,4.001,2.439c0.071-0.198,0.133-0.396,0.182-0.594
									c-1.06-0.75-2.455-1.651-3.922-2.374c-0.147-0.072-0.324-0.013-0.396,0.134
									C355.105,304.639,355.165,304.816,355.312,304.888z"/>
							</g>
						</g>
					</g>
					<g>
						<g>
							<g>
								<path style="fill:#352422;" d="M354.499,306.664c1.312,0.644,2.564,1.436,3.562,2.128c0.208-0.08,0.397-0.186,0.56-0.327
									c-1.051-0.741-2.421-1.625-3.861-2.332c-0.147-0.072-0.323-0.01-0.395,0.136
									C354.293,306.413,354.353,306.592,354.499,306.664z"/>
							</g>
						</g>
					</g>
				</g>
				<g>
					<g>
						<path style="fill:#FFFFFF;" d="M278.484,277.375c0.89,4.965,5.391,8.258,13.579,9.936c7.209,1.478,15.037,7.126,18.853,6.732
							c3.207-0.329,3.551-6.082-1.427-10.767c-4.23-3.979-7.448-8.082-9.803-11.616c-3.714-5.57-5.279-9.72-5.279-9.72
							s-0.681-0.21-1.753-0.383c-1.41-0.232-3.492-0.399-5.582,0.049c-2.331,0.502-4.67,1.776-6.092,4.594
							c-0.002,0.004-0.005,0.008-0.007,0.013c-0.379,0.754-0.719,1.487-1.017,2.202c-1.111,2.657-1.658,5.047-1.634,7.171
							l-0.002,0.002C278.326,276.206,278.381,276.8,278.484,277.375z"/>
					</g>
				</g>
				<g>
					<g>
						<path style="fill:#352422;" d="M278.484,277.375c1.471-0.247,3.389-0.808,5.591-1.496c4.503-1.407,10.183-3.346,15.612-4.219
							c1.156-0.185,2.303-0.321,3.425-0.394c12.719-0.828,18.128,6.551,24.44,6.343c6.312-0.208,6.554-6.485,4.117-13.057
							c-2.435-6.573,0.147-8.818,0.147-8.818c-4.18-4.278-22.903-2.132-32.763-0.325c-3.844,0.705-8.125,3.154-11.98,6.198
							c-2.317,1.83-4.479,3.875-6.301,5.884c-0.281,0.308-0.552,0.617-0.815,0.924c-1.111,2.657-1.658,5.047-1.634,7.171
							l-0.002,0.002C278.326,276.206,278.381,276.8,278.484,277.375z"/>
					</g>
				</g>
				<g>
					<g>
						<path style="fill:#352422;" d="M278.322,275.585c0.59-1.867,1.663-3.279,2.97-4.466c3.262-2.963,7.987-4.532,10.377-8.323
							c0.281-0.444,0.612-0.858,0.985-1.24c4.085-4.19,13.307-4.746,18.393-3.273c5.551,1.609,10.586-1.076,15.424-2.301
							c4.838-1.225,10.961,0.995,10.961,0.995c3.239-3.012,2.864-5.058,2.251-6.089c-1.471-0.151-3.019-0.267-4.619-0.35
							c-0.604-0.033-1.224-0.06-1.847-0.08c-20.761-0.701-49.435,4.236-52.245,15.752
							C279.179,269.767,278.292,272.889,278.322,275.585z"/>
					</g>
				</g>
				<g>
					<g>
						<g>
							<g>
								<path style="fill:#FF8A7C;" d="M348.133,259.304c0,0,4.025-0.171,5.059,0.388c1.734,0.936-1.351,4.089-3.2,4.254
									c-1.849,0.166-3.493-2.091-3.378-3.484C346.729,259.069,348.133,259.304,348.133,259.304z"/>
							</g>
						</g>
					</g>
					<g>
						<g>
							<g>
								<path style="fill:#FF8A7C;" d="M352.763,267.147c0.433-0.039,0.9-0.166,1.346-0.439c1.036-0.635,1.628-1.851,1.759-3.613
									c0.01-0.134-0.09-0.25-0.224-0.26c-0.134-0.009-0.25,0.091-0.26,0.224c-0.118,1.598-0.632,2.687-1.528,3.236
									c-0.927,0.568-1.984,0.378-2.414,0.197c-2.227-0.934-1.199-4.464-1.188-4.5c0.038-0.128-0.034-0.263-0.163-0.302
									c-0.128-0.038-0.264,0.034-0.302,0.163c-0.049,0.162-1.16,3.985,1.465,5.086
									C351.577,267.075,352.135,267.203,352.763,267.147z"/>
							</g>
						</g>
					</g>
					<g>
						<g>
							<g>
								<path style="fill:#FF8A7C;" d="M347.215,266.7c0.442-0.04,0.932-0.179,1.383-0.499c0.892-0.631,1.351-1.755,1.363-3.339
									c0.001-0.134-0.107-0.243-0.241-0.245c-0.133-0.002-0.243,0.107-0.244,0.241c-0.011,1.419-0.401,2.411-1.158,2.947
									c-0.782,0.554-1.724,0.448-2.112,0.314c-2.01-0.691-1.312-3.871-1.304-3.903c0.03-0.131-0.052-0.261-0.182-0.29
									c-0.131-0.029-0.261,0.052-0.29,0.182c-0.034,0.148-0.802,3.637,1.62,4.47C346.31,266.669,346.735,266.743,347.215,266.7z"
									/>
							</g>
						</g>
					</g>
				</g>
			</g>
			<g>
				<g>
					<g>
						<path style="fill:#FDB086;" d="M289.406,290.959c2.76,1.219,8.152,0.488,10.627-1.055c-1.374-2.284-2.139-7.332-2.309-9.516
							c-0.142-1.813-0.033-3.761,0.031-5.721l-0.003-0.005c0,0,0.009-0.178,0.018-0.494c0-0.06,0.006-0.123,0.005-0.196
							c0.003-0.068,0.006-0.14,0.006-0.213c0.075-2.353,0.143-8.648-0.95-10.875c-0.559-1.143-1.112-0.868-1.6,0.281
							c-0.694,1.623-1.257,4.992-1.534,8.564c0,0-0.703-2.281-0.131-5.488c0.301-1.694,0.524-3.488,0.439-5.138
							c-0.073-1.471-0.39-2.827-1.099-3.898c-0.455-0.687-0.94-0.35-1.401,0.528c-1.075,2.033-2.048,6.982-2.343,8.863
							c-0.423,2.691-0.366,2.497-0.347,4.644c-0.043-0.223-0.704-3.779-0.532-5.811c0.129-1.516,1.592-5.837,1.946-9.094
							c0.14-1.254,0.114-2.355-0.215-3.074c-0.67-1.459-1.462-0.759-2.231,0.842l-0.001,0.004c-0.595,1.239-1.177,3.01-1.678,4.741
							c-1.15,3.969-1.81,5.902-2.184,7.541c-0.4,1.747-0.364,4.777-0.336,4.992c-0.088-0.305-0.638-5.403-0.622-7.136
							c0.011-1.524,2.167-7.911,2.374-11.835c0.036-0.673,0.016-1.273-0.082-1.766c-0.444-2.193-1.218-1.23-2.088,0.69
							c-0.462,1.015-0.949,2.298-1.429,3.522c-1.383,3.544-2.307,7.222-2.529,9.235c-0.226,2.012-0.705,9.118-0.212,13.846
							c0.012,0.116,0.026,0.234,0.041,0.354c0.643,4.949,3.729,9.237,8.132,11.585C287.837,290.231,288.567,290.589,289.406,290.959
							z"/>
					</g>
				</g>
			</g>
		</g>
	</g>
</g>
</svg>
